<?xml version="1.0" encoding="UTF-8"?>
<svg version="1.1" viewBox="0 0 966 444" xmlns="http://www.w3.org/2000/svg" xmlns:xlink="http://www.w3.org/1999/xlink">
			<g id="lang" transform="matrix(.23004 0 0 .23004 -2.3832 -3.4279)" stroke-width="1.3588">
						<g fill="#93bbc7">
									<path d="m1194.3 1864.7c14.947 4.0764 36.688 4.0764 52.994-5.4353 9.5116-5.4352 16.306-13.588 20.382-23.1-5.4352-4.0765-9.5117-8.1529-14.947-12.229-4.0764-1.3587-8.1528-1.3587-10.87-1.3587-6.7941 0-13.588-1.3588-19.023-2.7177-58.157-9.5116-92.399-40.764-118.35-70.658-1.9023-2.7177-3.9405-5.4352-5.8429-8.1528 10.87 19.023 23.643 42.123 33.427 61.146 12.637 23.1 33.698 54.352 62.233 62.505z"/>
									<path d="m1270.4 1825.3v-1.3589h-10.87c2.7177 2.7177 5.4353 5.4353 9.5117 8.1528 0-1.3587 1.3588-4.0764 1.3588-6.7939z"/>
									<path d="m931.4 1640.5c-1.3588-2.7175-2.7176-5.4351-4.2123-9.5115v10.87h0.54351c17.257 43.482 16.849 92.399-0.54351 138.6v9.5118c21.197-48.917 22.964-101.91 4.2123-149.47z"/>
									<path d="m994.99 1894.6c40.492-16.306 59.788-48.917 68.756-74.734 10.327-28.535 12.773-62.505 6.2505-88.322-6.9299-28.535-22.828-57.07-35.872-77.452 15.354 19.023 28.263 36.688 39.677 52.993 0.8153 1.3589 1.6305 2.7176 2.4458 4.0764 8.4246 13.588 35.193 59.788 52.45 92.399 12.909 24.458 34.65 55.711 65.63 63.864 6.7941 2.7177 33.97 8.153 55.711-5.4352 9.5116-5.4351 16.306-12.229 20.382-23.1 5.4352 4.0764 9.5116 8.1528 14.947 12.229 39.405 32.611 80.17 43.482 110.06 46.199-1.3588 2.7177-2.7176 6.7941-4.0764 12.229 0 6.7941 2.7176 12.229 6.794 17.665 8.1528 10.87 27.176 13.588 43.482 6.7941 27.176-12.229 47.558-32.612 62.505-46.2l12.229-12.229 8.1528-6.7941-9.5118 4.0764s-21.741 6.7941-38.047 1.3588c-13.588-2.7177-17.664-5.4352-25.817-9.5116-2.7177-1.3589-5.4353-4.0764-10.87-5.4353-12.229-6.7939-24.458-8.1528-32.611-4.0764-5.4353 1.3589-9.5117 6.794-10.87 13.588-1.3588 1.3588-1.3588 2.7175-1.3588 4.0764 0 6.7941 1.3588 12.229 1.3588 13.588h1.3588v1.3589c5.4352 0 13.588 2.7175 31.253 2.7175 4.0764 0 31.252 1.3589 59.788-4.0764-20.382 8.1528-84.246 8.1528-86.964 8.1528-29.894-2.7175-72.017-13.588-114.14-46.199-5.4352-4.0765-10.87-8.153-16.306-13.588 1.3588-2.7177 1.3588-5.4352 2.7176-8.1528v-2.7177c10.87 0 23.1 1.3589 38.047 1.3589h44.841c35.329 1.3588 63.864 2.7175 120.93 8.1529 63.864 6.7939 111.42 28.535 111.42 28.535l9.5117 4.0765-6.7941-6.7941c-2.7176-2.7175-50.276-52.993-95.116-67.94-40.764-12.229-85.605-9.5117-95.116-9.5117-1.3588-5.4352-5.4352-23.1-24.458-35.329-19.023-14.947-51.635-4.0764-52.993-4.0764l-6.7941 1.3589 6.7941 2.7175s17.664 4.0764 24.458 17.665c2.7176 6.7941 2.7176 13.588-1.3588 23.1-2.7176 6.7941-16.306 28.535-72.017 31.253 2.7176-29.894-12.229-100.55-77.452-154.9 10.87 9.5117 32.611 17.664 65.223 62.505 13.588 19.023 16.306 39.405 16.306 39.405 8.1529 2.7177 39.405-12.229 28.535-44.84-9.5117-27.176-27.176-38.047-52.994-48.917-17.664-6.7941-33.97-12.229-62.505-20.382-10.055-4.0764-21.469-6.794-35.057-12.229l-10.463-2.7177 8.6964 6.7941c0.2717 0 15.762 12.229 34.106 43.482 4.0764 9.5117 16.306 38.047 19.023 48.917 4.0764 19.023 4.0764 33.97 10.87 42.123 4.0764 6.7941 10.87 10.87 19.023 10.87 6.7941 1.3589 13.588-1.3588 17.664-5.4352 5.4353-4.0764 8.1529-9.5117 8.1529-14.947 4.0764 13.588 8.1528 33.97 6.794 50.276-5.4352 1.3587-10.87 1.3587-17.664 0-31.252-28.535-65.223-67.94-102.05-111.42-22.692-28.535-93.758-108.7-207.22-161.7-6.2505-2.7177-12.093-5.4354-17.664-8.1529v9.5116c7.8811 2.7177 16.17 6.7941 26.225 12.229 110.88 57.07 166.59 119.58 190.37 148.11 35.872 42.123 75.006 82.887 104.9 111.42h-6.794c-6.7941 0-12.229-1.3588-19.023-2.7177-56.255-8.1528-89.953-40.764-115.36-69.299-8.9681-10.87-18.208-24.458-27.856-38.046-1.6305-2.7177-2.4458-4.0764-2.5817-4.0764h-0.2718c-22.42-31.253-47.694-72.017-89.545-107.35-20.246-16.306-36.144-29.894-60.059-44.841v8.1529c19.839 12.229 38.454 25.817 54.76 39.405 36.008 32.611 71.745 81.528 84.246 133.16 11.686 47.558-3.3971 130.45-72.696 157.62-23.371 9.5118-45.792 12.229-66.31 10.87v4.0764c22.013 1.3589 44.976-1.3587 67.804-10.87zm275.43-70.658v1.3589c0 2.7175-1.3588 5.4352-1.3588 6.7939-4.0764-2.7175-6.794-5.4351-9.5117-8.1528h10.87zm-165.91-74.734c25.953 29.894 60.195 61.146 118.35 70.658 5.4352 1.3589 12.229 2.7177 19.023 2.7177 2.7176 0 6.794 0 10.87 1.3587 5.4352 4.0764 9.5117 8.1528 14.947 12.229-4.0764 9.5117-10.87 17.664-20.382 23.1-16.306 9.5117-38.047 9.5117-52.994 5.4353-28.535-8.1528-49.596-39.405-62.233-62.505-9.7834-19.023-22.556-42.123-33.427-61.146 1.9024 2.7176 3.9406 5.4351 5.8429 8.1528z"/>
									<path d="m927.19 1522.3c6.3864 2.7177 12.773 4.0764 19.023 5.4352 62.369 16.306 118.35-17.664 118.9-17.664l8.017-4.0764h-9.2399c-0.4077 1.3587-32.476 5.4351-53.945 2.7175-29.758-5.4352-41.715-8.1528-75.006-21.741-2.5817-1.3589-5.1635-1.3589-7.7452-2.7177z"/>
						</g>
						<path d="m1114.8 1552.2-72.424 28.535c45.656 19.023 99.329 25.817 164.14 31.253 72.017 5.4351 108.7 48.917 108.7 48.917l6.794 8.153-4.0764-9.5117c0-1.3588-21.741-66.582-80.17-89.681-16.306-6.794-40.764-5.4351-50.276-4.0764 4.0764-6.7941 10.87-20.382 10.87-38.047 1.3588-2.7175 1.3588-6.7939 0-9.5116-2.7177-44.841-42.802-57.07-43.21-58.429h-3.8047l1.3589 2.7177s5.2993 14.947 4.2122 32.611c-1.087 19.023-9.2398 43.482-42.123 57.07z" fill="#c1d2a8"/>
						<path d="m1052.5 1890.5c-12.501 10.87-21.877 16.306-21.877 16.306s20.654 1.3588 35.465-4.0765c24.866-10.87 31.932-31.253 31.932-31.253s2.31 6.7941 21.469 17.665c25.953 13.588 73.511-1.3588 73.511-1.3588s-42.802 1.3588-71.066-29.894c-19.159-21.741-39.677-116.86-39.677-116.86s5.2993 40.764 5.0276 65.223c-0.2718 27.176-6.1147 61.146-34.786 84.246z" fill="#93bbc7"/>
						<path d="m966.46 1666.3c-8.5605-24.458-24.866-46.199-39.269-62.505v10.87c11.006 20.382 21.333 46.199 22.284 74.734 1.7664 48.917-3.5329 72.017-16.17 101.91-2.4458 5.4352-4.4841 10.87-6.1146 13.588v19.023c3.8046 5.4353 9.7834 12.229 18.072 16.306 39.813 17.664 69.027-9.5116 69.027-9.5116s-41.036-23.1-38.182-67.94c3.5329-52.994-0.95116-72.017-9.6475-96.475z" fill="#eb6847"/>
						<g fill="#93bbc7">
									<path d="m659.51 1864.7c-14.675 4.0764-36.28 4.0764-52.858-5.4353-8.8322-5.4352-15.219-13.588-19.295-23.1 4.6199-4.0765 9.3758-8.1529 14.132-12.229 4.8917-1.3587 8.5605-1.3587 11.142-1.3587 6.6582 0 13.18-1.3588 19.567-2.7177 57.613-9.5116 91.855-40.764 117.81-70.658 1.9023-2.7177 3.8047-5.4352 5.8429-8.1528-10.87 19.023-23.779 42.123-33.563 61.146-12.501 23.1-33.698 54.352-62.777 62.505z"/>
									<path d="m923.11 1640.5c1.2229-2.7175 2.7176-5.4351 4.0764-9.5115v10.87h-0.40764c-17.257 43.482-16.849 92.399 0.40764 138.6v9.5118c-21.197-48.917-22.828-101.91-4.0764-149.47z"/>
									<path d="m859.52 1894.6c-40.492-16.306-59.787-48.917-68.891-74.734-10.327-28.535-12.637-62.505-6.2505-88.322 7.0658-28.535 22.964-57.07 36.008-77.452-15.49 19.023-28.263 36.688-39.813 52.993-0.8153 1.3589-1.6306 2.7176-2.4459 4.0764-8.2887 13.588-35.193 59.788-52.314 92.399-12.909 24.458-34.785 55.711-65.359 63.864-7.4734 2.7177-33.698 8.153-55.847-5.4352-9.104-5.4351-16.034-12.229-20.382-23.1-5.0276 4.0764-10.055 8.1528-14.947 12.229-40.085 32.611-80.713 43.482-110.61 46.199 1.6306 2.7177 3.6688 6.7941 3.9405 12.229 0.40764 6.7941-1.6306 12.229-5.8429 17.665-8.2887 10.87-27.584 13.588-43.346 6.7941-27.312-12.229-48.102-32.612-63.456-46.2-4.7558-5.4353-8.8322-9.5117-12.501-12.229l-7.6093-6.7941 9.5116 4.0764c0.13587 0 22.42 6.7941 38.59 1.3588 12.637-2.7177 16.985-5.4352 25.002-9.5116 2.8535-1.3589 6.2505-4.0764 10.599-5.4353 12.773-6.7939 25.002-8.1528 33.563-4.0764 5.5711 1.3589 9.3758 6.794 11.142 13.588 0.27175 1.3588 0.54351 2.7175 0.67939 4.0764 0.27176 6.7941-1.6306 12.229-1.7664 13.588h-0.27177l-0.95116 1.3589c-4.4841 0-13.045 2.7175-30.573 2.7175-4.0764 0-31.796 1.3589-60.739-4.0764 21.197 8.1528 84.382 8.1528 87.643 8.1528 29.894-2.7175 72.56-13.588 114.55-46.199 5.1635-4.0765 10.463-8.153 15.762-13.588-0.95118-2.7177-1.7665-5.4352-2.4459-8.1528-0.13587-1.3588-0.27175-1.3588-0.40764-2.7177-10.599 0-23.236 1.3589-37.911 1.3589h-44.297c-36.144 1.3588-64.815 2.7175-121.34 8.1529-63.592 6.7939-111.29 28.535-111.69 28.535l-9.104 4.0765 6.794-6.7941c2.0382-2.7175 50.004-52.993 95.116-67.94 40.221-12.229 85.333-9.5117 94.981-9.5117 0.95117-5.4352 5.1635-23.1 23.779-35.329 19.295-14.947 52.042-4.0764 53.537-4.0764l6.5223 1.3589-6.6582 2.7175c-0.13588 0-17.121 4.0764-23.643 17.665-3.2612 6.7941-3.2612 13.588 0.13587 23.1 2.9894 6.7941 16.577 28.535 72.968 31.253-2.7176-29.894 11.686-100.55 76.773-154.9-10.599 9.5117-32.068 17.664-65.359 62.505-13.724 19.023-16.306 39.405-16.306 39.405-7.0658 2.7177-39.134-12.229-27.584-44.84 9.3758-27.176 27.04-38.047 52.722-48.917 17.529-6.7941 34.378-12.229 62.233-20.382 10.055-4.0764 21.469-6.794 35.193-12.229l10.327-2.7177-8.5605 6.7941c-0.27176 0-15.762 12.229-33.563 43.482-5.1635 9.5117-16.849 38.047-19.159 48.917-4.2123 19.023-4.62 33.97-11.142 42.123-4.8917 6.7941-11.686 10.87-19.159 10.87-6.794 1.3589-13.316-1.3588-17.936-5.4352-4.8917-4.0764-7.4734-9.5117-8.017-14.947-3.9405 13.588-8.1528 33.97-6.3864 50.276 5.4352 1.3587 11.142 1.3587 17.393 0 30.573-28.535 65.494-67.94 102.05-111.42 22.556-28.535 93.758-108.7 207.22-161.7 6.1146-2.7177 11.957-5.4354 17.529-8.1529v9.5116c-7.7452 2.7177-16.034 6.7941-26.089 12.229-111.01 57.07-166.73 119.58-190.5 148.11-35.872 42.123-74.463 82.887-104.22 111.42h5.8429c6.6582 0 13.045-1.3588 19.295-2.7177 56.39-8.1528 89.953-40.764 115.36-69.299 9.104-10.87 18.344-24.458 27.991-38.046 1.4947-2.7177 2.4458-4.0764 2.4458-4.0764h0.40764c22.42-31.253 47.694-72.017 89.545-107.35 20.246-16.306 36.144-29.894 59.923-44.841v8.1529c-19.703 12.229-38.318 25.817-54.76 39.405-36.008 32.611-71.609 81.528-84.246 133.16-11.55 47.558 3.397 130.45 72.832 157.62 23.236 9.5118 45.656 12.229 66.174 10.87v4.0764c-22.013 1.3589-44.841-1.3587-67.669-10.87zm-275.84-70.658c0.13587 0 0.13587 1.3589 0.27177 1.3589 0.54351 2.7175 1.2229 5.4352 1.9023 6.7939 3.1252-2.7175 6.3864-5.4351 9.6475-8.1528h-11.822zm166.32-74.734c-25.953 29.894-60.195 61.146-117.81 70.658-6.3864 1.3589-12.909 2.7177-19.567 2.7177-2.5817 0-6.2505 0-11.142 1.3587-4.7558 4.0764-9.5116 8.1528-14.132 12.229 4.0764 9.5117 10.463 17.664 19.295 23.1 16.577 9.5117 38.182 9.5117 52.858 5.4353 29.078-8.1528 50.276-39.405 62.777-62.505 9.7834-19.023 22.692-42.123 33.563-61.146-2.0382 2.7176-3.9405 5.4351-5.8429 8.1528z"/>
									<path d="m927.19 1522.3c-6.3864 2.7177-12.637 4.0764-18.887 5.4352-62.505 16.306-118.35-17.664-119.03-17.664l-8.017-4.0764h9.3758c0.27176 1.3587 32.475 5.4351 53.945 2.7175 29.758-5.4352 41.579-8.1528 75.006-21.741 2.5817-1.3589 5.1635-1.3589 7.6093-2.7177z"/>
						</g>
						<path d="m739.54 1552.2 72.424 28.535c-45.52 19.023-99.193 25.817-164.69 31.253-71.066 5.4351-107.48 48.917-107.89 48.917l-6.6582 8.153 3.2611-9.5117c0.27176-1.3588 22.828-66.582 80.17-89.681 16.306-6.794 40.9-5.4351 50.412-4.0764-3.397-6.7941-10.055-20.382-11.142-38.047-0.13587-2.7175-0.13587-6.7939 0.13588-9.5116 3.397-44.841 43.346-57.07 43.754-58.429h3.8047l-1.3588 2.7177c-0.13587 0-5.2993 14.947-4.3482 32.611 1.087 19.023 9.3758 43.482 42.123 57.07z" fill="#c1d2a8"/>
						<path d="m801.91 1890.5c12.501 10.87 22.013 16.306 22.013 16.306s-20.654 1.3588-35.601-4.0765c-24.73-10.87-31.796-31.253-31.796-31.253s-2.4458 6.7941-21.605 17.665c-25.953 13.588-73.24-1.3588-73.24-1.3588s42.667 1.3588 70.794-29.894c19.295-21.741 39.813-116.86 39.813-116.86s-5.4352 40.764-5.1635 65.223c0.27177 27.176 6.2505 61.146 34.785 84.246z" fill="#93bbc7"/>
						<path d="m888.06 1666.3c8.5605-24.458 24.866-46.199 39.134-62.505v10.87c-11.006 20.382-21.333 46.199-22.284 74.734-1.6306 48.917 3.5329 72.017 16.17 101.91 2.4458 5.4352 4.4841 10.87 6.1146 13.588v19.023c-3.8047 5.4353-9.6475 12.229-18.072 16.306-39.677 17.664-68.891-9.5116-68.891-9.5116s41.036-23.1 38.182-67.94c-3.5329-52.994 0.81529-72.017 9.6475-96.475z" fill="#c793b5"/>
			</g>
			<g id="corner" transform="matrix(.23004 0 0 .23004 -2.3832 -1.1869)" fill="#93bbc7">
						<path d="m182.23 175.47c1.3 3.6 2.6 7.2 4 10.8l22.8 22.8c-6-12.6-10.8-23.9-13.8-33.1-27.1-81.11-39-148.49-8.2-165.49l-2.9 0.2c-34.6 7.48-31.1 83.46-1.9 164.79z"/>
						<path d="m485.83 326.37c-13.9-4.4-25.6 0.8-31.2 4.3-1.4-5.2-6.3-17.6-21.8-18.2h-2c-22 0.6-28.5 17.4-33.8 30.8-1.3 3.4-2.5 6.6-3.9 9.4l-0.2 0.3c-5.7 11.2-9.8 19.1-15.1 24.9l32.8 32.8c4.2-0.2 8.4-0.5 12.6-1.1 25-3.3 37-12.3 45.5-20.8 7.8-7.7 13.7-20.9 7.1-34.8-3.9-8.3-15.2-15.2-15.6-15.5l-0.5-0.3-0.6 0.2c-0.6 0.1-6.3 1.8-15.7 16.5-3.9 6.1-13.3 17.3-20.9 22.8-7.8 5.5-16.9 8.6-24.5 10.4 0.5-0.2 1.1-0.5 1.7-0.8 0.7-0.3 1.3-0.6 2-0.9 8.2-3.7 16.7-7.5 36.8-35.5 7.2-10 15.9-16.6 16-16.7l0.5-0.3c4.5-3 16.2-9.1 30-4.7 10.8 3.4 19.5 11.3 24.5 22 6.6 14.4 9.3 35.3 0.4 54-10.8 22.6-29.2 36.4-63.9 40.9l4.8 4.8c32.4-4.7 53.6-20.4 64.5-45.5 8.7-19.8 7.2-38.4-1.7-57.4-5.4-11.4-16.1-17.9-27.8-21.6z"/>
						<path d="m122.93 122.87v0.1l12.9 12.9c0.1-3.9 0.1-8 0.3-12.2 0.9-37.89 18.1-111.68 44.9-113.11l-4.4-0.16c-33.4 7.49-51.4 63.17-53.7 112.47z"/>
						<path d="m308.23 306.77c17.5 10.4 29.1 17.3 37.3 30.7 2.2 3.5 4.1 8.6 5.7 13.8l12.2 12.2c3.9-11.9 9.8-31.2 13.6-48 2-8.7 5.4-28.8 5.7-48.4 0.2-19-3.6-35.7-10.4-45.9-2.5-3.7-11.9-16-27.8-16.6-3.4-0.1-6.9 0.4-10.4 1.4-18.4 5.4-23 17-24.1 21.2-7.6-5.5-16.2-11.6-25.1-17.8-15.9-11.2-32.4-22.7-43.9-32.3-27.4-22.6-42.9-45.5-55.2-92.06-17.8-67.43 4.1-73.58 4.1-74l-1.6-0.18c-19.2 11.56-15.4 40.24-8 74.89 9.9 47.95 30.8 70.55 58.7 93.65h0.2c11.6 9.6 28.1 21.2 44.1 32.4 17.1 12 33.4 23.4 42.6 31.7 4.4 5 9.1 11.7 13.6 20.7 3.3 8.2 6.2 17.9 8.5 26.9-6.1-14.7-14.6-31.5-24.2-40.4-5.7-5.2-12.6-8.2-20-8.4-12.6-0.5-24.2 7.1-27.1 17.7-1.6 6-1.5 11.6 0.2 17l27.7 27.7c1.2 0.7 2.4 1.5 3.6 2.1z"/>
						<path d="m164.83 154.97c-11.4-46.6-10.3-100.5-10.3-100.5h-0.2c0 0.22-4.4 7.19-9.1 38.59-2.1 13.71-3.3 33.01-3.1 41.11 0 2.8 0.1 5.5 0.2 8.2l27 27c-1.8-5-3.4-9.9-4.5-14.4z"/>
						<path d="m111.33 111.37c0.7-2.7 1.1-4.1 1.1-4.1s-0.7 1.2-1.9 3.3z"/>
						<path d="m494.63 478.07"/>
						<path d="m175.43 182.27c3.6 1.3 7.2 2.6 10.8 4l22.8 22.8c-12.6-6-23.9-10.8-33.1-13.8-81.11-27.1-148.49-39-165.49-8.2l0.2-2.9c7.48-34.6 83.46-31.1 164.79-1.9z"/>
						<path d="m326.33 485.87c-4.4-13.9 0.8-25.6 4.3-31.2-5.2-1.4-17.6-6.3-18.2-21.8v-2c0.6-22 17.4-28.5 30.8-33.8 3.4-1.3 6.6-2.5 9.4-3.9l0.3-0.2c11.2-5.7 19.1-9.8 24.9-15.1l32.8 32.8c-0.2 4.2-0.5 8.4-1.1 12.6-3.3 25-12.3 37-20.8 45.5-7.7 7.8-20.9 13.7-34.8 7.1-8.3-3.9-15.2-15.2-15.5-15.6l-0.3-0.5 0.2-0.6c0.1-0.6 1.8-6.3 16.5-15.7 6.1-3.9 17.3-13.3 22.8-20.9 5.5-7.8 8.6-16.9 10.4-24.5-0.2 0.5-0.5 1.1-0.8 1.7-0.3 0.7-0.6 1.3-0.9 2-3.7 8.2-7.5 16.7-35.5 36.8-10 7.2-16.6 15.9-16.7 16l-0.3 0.5c-3 4.5-9.1 16.2-4.7 30 3.4 10.8 11.3 19.5 22 24.5 14.4 6.6 35.3 9.3 54 0.4 22.6-10.8 36.4-29.2 40.9-63.9l4.8 4.8c-4.7 32.4-20.4 53.6-45.5 64.5-19.8 8.7-38.4 7.2-57.4-1.7-11.4-5.4-17.9-16.1-21.6-27.8z"/>
						<path d="m122.83 122.97h0.1l12.9 12.9c-3.9 0.1-8 0.1-12.2 0.3-37.89 0.9-111.68 18.1-113.11 44.9l-0.16-4.4c7.49-33.4 63.17-51.4 112.47-53.7z"/>
						<path d="m306.73 308.27c10.4 17.5 17.3 29.1 30.7 37.3 3.5 2.2 8.6 4.1 13.8 5.7l12.2 12.2c-11.9 3.9-31.2 9.8-48 13.6-8.7 2-28.8 5.4-48.4 5.7-19 0.2-35.7-3.6-45.9-10.4-3.7-2.5-16-11.9-16.6-27.8-0.1-3.4 0.4-6.9 1.4-10.4 5.4-18.4 17-23 21.2-24.1-5.5-7.6-11.6-16.2-17.8-25.1-11.2-15.9-22.7-32.4-32.3-43.9-22.6-27.4-45.5-42.9-92.06-55.2-67.43-17.8-73.58 4.1-74 4.1l-0.18-1.6c11.56-19.2 40.24-15.4 74.89-8 47.95 9.9 70.55 30.8 93.65 58.7v0.2c9.6 11.6 21.2 28.1 32.4 44.1 12 17.1 23.4 33.4 31.7 42.6 5 4.4 11.7 9.1 20.7 13.6 8.2 3.3 17.9 6.2 26.9 8.5-14.7-6.1-31.5-14.6-40.4-24.2-5.2-5.7-8.2-12.6-8.4-20-0.5-12.6 7.1-24.2 17.7-27.1 6-1.6 11.6-1.5 17 0.2l27.7 27.7c0.7 1.2 1.5 2.4 2.1 3.6z"/>
						<path d="m154.93 164.87c-46.6-11.4-100.5-10.3-100.5-10.3v-0.2c0.22 0 7.19-4.4 38.59-9.1 13.71-2.1 33.01-3.3 41.11-3.1 2.8 0 5.5 0.1 8.2 0.2l27 27c-5-1.8-9.9-3.4-14.4-4.5z"/>
						<path d="m111.33 111.37c-2.7 0.7-4.1 1.1-4.1 1.1s1.2-0.7 3.3-1.9z"/>
			</g>
			<use transform="rotate(-90 221.53 220.09)" fill="#93bbc7" xlink:href="#corner"/>
			<g stroke-width="1.4">
						<use transform="translate(534.71)" xlink:href="#lang"/>
						<use transform="rotate(-90 477.49 -46.297)" xlink:href="#lang"/>
						<use transform="rotate(90 219.18 226.11)" xlink:href="#lang"/>
						<use transform="rotate(180 478.63 222.43)" xlink:href="#lang"/>
						<use transform="rotate(180 211.06 222.43)" xlink:href="#lang"/>
			</g>
			<use transform="rotate(90 484.1 484.1)" fill="#93bbc7" xlink:href="#corner"/>
			<use transform="rotate(180 483.16 221.57)" fill="#93bbc7" xlink:href="#corner"/>
			<text x="497.25818" y="302.05099" fill="#477a85" font-size="69.01px" stroke-width=".23004" text-anchor="middle">border-image</text>
			<use transform="matrix(-.75353 0 0 -1 637.85 444.87)" stroke-width="1.4" xlink:href="#lang"/>
			<use transform="matrix(.75353 0 0 1 321.45 .84412)" stroke-width="1.4" xlink:href="#lang"/>
</svg>
