<?xml version="1.0" encoding="utf-8"?>
<!-- Generator: Adobe Illustrator 25.2.1, SVG Export Plug-In . SVG Version: 6.00 Build 0)  -->
<svg version="1.1" xmlns="http://www.w3.org/2000/svg" xmlns:xlink="http://www.w3.org/1999/xlink" x="0px" y="0px" width="864px"
	 height="864px" viewBox="0 0 864 864" enable-background="new 0 0 864 864" xml:space="preserve">
<g id="Background">
</g>
<g id="Design_Elements">
	<g>
		<path fill="none" stroke="#000001" stroke-width="0.5" stroke-miterlimit="10" d="M563.457,54.427
			c5.113-2.367,7.044,6.732,11.332,7.356c3.197,0.339,6.847-5.602,10.228-5.574c3.24,0.014,6.819,6.012,10.172,5.687
			c3.253-0.316,5.588-6.952,8.941-7.569 M546.848,70.681c3.826,5.611,10.493-3.189,15.477-2.221
			c3.692,0.778,6.423,8.587,10.412,9.026c3.791,0.396,8.12-6.621,12.11-6.607c3.834,0.028,8.064,7.13,12.039,6.748
			c3.805-0.382,6.592-8.134,10.497-8.941c4.369-0.928,10.937,7.341,14.868,2.9 M538.94,82.168
			c5.14,11.938,11.785-0.031,19.721,0.594c4.272,0.906,7.427,9.917,12.039,10.412c4.371,0.481,9.365-7.639,13.977-7.611
			c4.428,0.028,9.323,8.219,13.892,7.781c4.414-0.424,7.625-9.393,12.124-10.313c6.747-0.664,14.562,10.966,19.141,0.325
			 M532.419,95.947c6.112,14.264,13.159,0.508,22.592,1.117c4.852,1.033,8.403,11.261,13.652,11.813
			c4.951,0.538,10.61-8.658,15.844-8.63c5.008,0.028,10.568,9.323,15.759,8.828c4.994-0.495,8.644-10.652,13.751-11.699
			c8.268-0.642,16.479,12.908,22.069-0.34 M527.538,112.881c0.014,0.014,0,0.014,0,0.014c5.782,11.36,15.465-2.707,23.823-1.528
			c5.418,1.16,9.393,12.591,15.25,13.213c5.545,0.608,11.883-9.691,17.726-9.648c5.602,0.028,11.813,10.426,17.627,9.86
			c5.574-0.538,9.662-11.912,15.363-13.086c7.523-1.086,18.11,12.982,23.526,1.782c0,0,0,0,0-0.014 M541.685,179.031
			c4.145-1.627,8.813-4.612,12.279-3.721c5.008,1.273,8.375,11.841,13.737,12.548c5.149,0.679,11.133-8.63,16.523-8.573
			c5.206,0.057,11.006,9.507,16.339,8.898c5.178-0.594,8.672-11.091,13.892-12.378c3.183-0.792,7.54,1.981,11.586,3.636
			 M531.372,163.144c5.416,3.906,14.164-5.869,20.329-4.343c5.305,1.273,8.997,12.477,14.684,13.185
			c5.461,0.665,11.742-9.28,17.457-9.238c5.503,0.057,11.629,10.129,17.316,9.507c5.461-0.608,9.252-11.742,14.826-13.029
			c6.116-1.487,15.665,9.573,21.149,3.65 M526.519,145.772v0.014c5.832,7.453,15.88-5.119,23.243-3.466
			c5.659,1.33,9.577,13.27,15.632,14.076c5.828,0.764,12.675-9.733,18.716-9.563c5.927,0.17,12.223,11.049,18.207,10.539
			c5.927-0.509,10.214-12.265,16.071-13.538c7.103-1.506,18.263,11.727,23.512,2.561 M525.557,131.809
			c6.071,3.018,15.347-7.585,22.14-6.125c5.998,1.259,10.398,13.906,16.877,14.599c6.126,0.665,13.128-10.709,19.607-10.667
			c6.182,0.028,13.043,11.53,19.466,10.907c6.182-0.608,10.681-13.171,17.004-14.472c6.421-1.342,15.794,9.522,22.225,6.196"/>
		<path fill="none" stroke="#000001" stroke-width="0.75" stroke-miterlimit="10" d="M642.871,133.156
			c0.289,34.492-20.336,63.315-60.544,62.066c-66.463-1.199-68.158-81.074-37.835-121.515
			C588.876,9.076,643.609,79.42,642.871,133.156z"/>
	</g>
	<g>
		<path fill="none" stroke="#000001" stroke-width="0.75" stroke-miterlimit="10" d="M343.404,133.34
			c0.289,34.492-20.336,63.315-60.544,62.066c-66.463-1.199-68.158-81.074-37.835-121.515c13.182-17.408,28.716-30.41,48.241-25.009
			C323.918,59.576,343.665,100.329,343.404,133.34z"/>
		<g>
			<path fill="none" stroke="#000001" stroke-width="0.4889" stroke-miterlimit="10" d="M226.145,132.293
				c1.825-0.622,3.593-1.627,5.178-2.829c-1.471-3.593-1.938-7.526-1.075-10.454c2.263-7.342,8.021-4.796,7.201,1.57
				c-0.495,3.056-2.928,6.423-6.126,8.884c1.783,4.329,5.036,8.149,9.21,9.068c4.088,0.905,8.573-1.316,11.912-4.584
				c-1.867-3.395-2.773-7.257-2.278-10.271c1.372-7.554,7.512-5.659,7.37,0.764c-0.17,3.056-2.193,6.677-5.093,9.507
				c2.235,4.103,5.857,7.526,10.072,8.021c4.145,0.453,8.361-2.207,11.346-5.786c-2.207-3.211-3.551-6.974-3.31-9.973
				c0.594-7.639,6.932-6.465,7.427,0.042c0.127,3.042-1.528,6.833-4.117,9.931c2.716,3.904,6.734,7.017,10.808,6.988
				c3.961,0.141,7.908-2.9,10.596-6.748c0-0.014,0-0.014,0-0.014c-2.462-3.013-4.032-6.691-4.159-9.747
				c-0.099-3.848,1.5-5.574,3.211-5.574c1.712-0.057,3.622,1.655,4.173,4.852c0.509,3.013-0.849,7.059-3.225,10.469c0,0,0,0,0,0.014
				c2.943,3.622,7.144,6.281,11.586,5.715c4.301-0.594,7.823-3.89,9.973-7.795c-2.787-2.716-4.796-6.196-5.234-9.252
				c-0.948-7.611,5.447-7.738,7.257-1.471c0.778,3.042-0.042,7.144-2.023,10.723c3.324,3.225,7.781,5.376,12.053,4.456
				c4.216-1.019,7.441-4.683,9.139-8.955c-3.141-2.377-5.588-5.546-6.281-8.53c-1.768-7.455,4.584-8.149,7.045-2.249
				c1.019,3.225,0.665,7.215-0.764,10.78c1.655,1.245,3.494,2.278,5.362,2.914"/>
			<path fill="none" stroke="#000001" stroke-width="0.5" stroke-miterlimit="10" d="M238.6,149.13
				c-0.428,1.966-2.485,3.255-4.566,2.735c-2.079-0.534-3.341-2.557-2.82-4.516c0.522-1.959,2.554-3.133,4.539-2.622
				C237.743,145.226,239.035,147.135,238.6,149.13z M260.039,149.08c-2.04-0.281-3.926,1.119-4.211,3.127s1.2,3.87,3.317,4.16
				c2.118,0.284,4.016-1.231,4.223-3.232C263.579,151.103,262.08,149.354,260.039,149.08z M284.689,150.773
				c-2.06-0.047-3.789,1.557-3.862,3.583c-0.073,2.026,1.599,3.709,3.735,3.757c2.136,0.048,3.865-1.551,3.862-3.601
				C288.421,152.508,286.749,150.82,284.689,150.773z M309.359,149.865c-1.025,0.105-1.917,0.614-2.54,1.342
				c-0.625,0.702-0.979,1.642-0.903,2.653c0.076,1.011,0.571,1.901,1.319,2.522c0.745,0.595,1.743,0.902,2.805,0.794
				c2.13-0.22,3.669-2.031,3.439-4.046C313.248,151.116,311.403,149.654,309.359,149.865z M333.699,146.109
				c-2.01,0.405-3.321,2.348-2.93,4.337c0.392,1.989,2.415,3.257,4.518,2.831c2.112-0.389,3.382-2.526,2.901-4.461
				C337.693,146.816,335.718,145.741,333.699,146.109z"/>
			<path fill="none" stroke="#000001" stroke-width="0.5033" stroke-miterlimit="10" d="M234.789,93.856
				c0.424,0.283,0.891,0.495,1.386,0.608c4.866,1.118,12.492-9.478,17.952-8.672c5.022,0.736,8.842,13.057,14.274,13.468
				c5.121,0.382,10.921-11.204,16.339-11.176c5.178,0.028,10.865,11.671,16.24,11.303c5.178-0.354,9.068-12.633,14.359-13.383
				c5.149-0.736,12.704,9.917,17.91,8.757c0.453-0.099,0.863-0.283,1.259-0.552"/>
			<path fill="none" stroke="#000001" stroke-width="0.5" stroke-miterlimit="10" d="M232.172,166.132
				c5.362-1.401,12.11-7.286,17.132-6.21c5.814,1.231,10.087,13.51,16.382,14.189c5.956,0.637,12.746-10.412,19.027-10.37
				c6.012,0.042,12.675,11.19,18.9,10.582c5.998-0.58,10.37-12.775,16.495-14.034c4.753-0.976,11.416,5.008,16.934,6.366"/>
			<path fill="none" stroke="#000001" stroke-width="0.5" stroke-miterlimit="10" d="M284.676,70.478
				c-1.94-0.047-3.484-1.223-3.406-4.455c0.059-2.42,3.689-7.251,3.689-7.251s3.396,4.885,3.334,7.421
				C288.215,69.426,286.615,70.525,284.676,70.478z M295.735,58.448c-2.33-1.004-8.129,0.324-8.129,0.324s3.128,5.172,5.35,6.129
				c2.97,1.279,4.637,0.285,5.404-1.497C299.128,61.622,298.705,59.727,295.735,58.448z M271.144,63.404
				c0.767,1.782,2.435,2.776,5.404,1.497c2.223-0.957,5.35-6.129,5.35-6.129s-5.799-1.327-8.129-0.324
				C270.799,59.727,270.376,61.622,271.144,63.404z"/>
			<circle fill="none" stroke="#000001" stroke-width="0.5" stroke-miterlimit="10" cx="284.752" cy="54.42" r="2.247"/>
			<path fill="none" stroke="#000001" stroke-width="0.5" stroke-miterlimit="10" d="M306.19,78.527
				c-0.174-2.022,1.355-3.81,3.411-4.011c2.045-0.255,3.927,1.167,4.202,3.175c0.276,2.009-1.246,3.855-3.399,4.122
				C308.251,82.025,306.364,80.545,306.19,78.527z M284.739,83.099c2.148-0.025,3.862-1.69,3.83-3.717
				c-0.032-2.027-1.747-3.65-3.829-3.625c-2.075-0.033-3.789,1.585-3.83,3.612C280.869,81.397,282.584,83.067,284.739,83.099z
				 M259.061,81.624c2.148,0.23,4.044-1.22,4.235-3.239c0.191-2.018-1.323-3.833-3.382-4.053c-2.058-0.221-3.941,1.135-4.225,3.156
				C255.409,79.482,256.913,81.393,259.061,81.624z"/>
			<path fill="none" stroke="#000001" stroke-width="0.5" stroke-miterlimit="10" d="M232.766,98.85
				c0.439-0.325,0.707-0.538,0.707-0.538s0.354,1.301,0.651,2.9c0.297,1.57,0.552,3.438,0.184,4.555
				c-0.905,2.858-2.688,3.409-4.442,2.773c-0.071-0.028-0.127-0.042-0.184-0.071 M255.585,110.214
				c0.181-1.163-0.355-2.955-0.905-4.468c-0.55-1.528-1.12-2.763-1.12-2.763s-0.96,0.982-2,2.235
				c-1.037,1.252-2.163,2.781-2.383,3.87c-0.597,2.948,0.668,4.241,2.488,4.573C253.484,114.008,255.127,113.176,255.585,110.214z
				 M277.19,111.849c0.059-1.173-0.66-2.92-1.374-4.372c-0.716-1.453-1.432-2.611-1.432-2.611s-0.857,1.087-1.751,2.454
				c-0.893,1.373-1.826,3.004-1.914,4.115c-0.237,2.996,1.154,4.147,2.973,4.255C275.511,115.801,277.042,114.839,277.19,111.849z
				 M298.833,111.518c-0.046-1.167-0.918-2.848-1.756-4.236c-0.841-1.387-1.653-2.482-1.653-2.482s-0.756,1.155-1.527,2.591
				c-0.769,1.436-1.559,3.153-1.55,4.274c0.021,2.996,1.509,4.018,3.336,3.977C297.509,115.599,298.953,114.519,298.833,111.518z
				 M320.359,109.031c-0.171-1.162-1.216-2.73-2.193-4.011c-0.979-1.28-1.896-2.274-1.896-2.274s-0.628,1.226-1.248,2.721
				c-0.617,1.496-1.229,3.275-1.106,4.389c0.326,2.977,1.917,3.859,3.74,3.65C319.475,113.247,320.799,111.993,320.359,109.031z
				 M336.405,98.85c-0.17,0.523-0.424,1.372-0.679,2.334c-0.41,1.57-0.806,3.395-0.538,4.485c0.693,2.914,2.391,3.622,4.187,3.126
				c0.099-0.028,0.184-0.057,0.283-0.085"/>
			<path fill="none" stroke="#000001" stroke-width="0.5" stroke-miterlimit="10" d="M249.127,180.47
				c0.206-1.388,4.126-5.113,4.88-5.715c0.372,0.902,1.945,6.011,1.411,7.375C254.329,187.573,247.376,185.732,249.127,180.47z
				 M276.999,187.358c0.434-1.405-1.547-6.382-2.024-7.249c-0.706,0.655-4.295,4.725-4.362,6.128
				C269.37,191.632,276.326,192.824,276.999,187.358z M298.93,186.405c0.025-1.46-3.266-5.71-3.96-6.409
				c-0.499,0.833-2.816,5.716-2.492,7.098C292.769,192.599,299.814,191.853,298.93,186.405z M320.462,180.145
				c-0.254-1.446-4.249-4.967-5.062-5.53c-0.331,0.913-1.727,6.096-1.158,7.399C315.544,187.415,322.353,185.363,320.462,180.145z"
				/>
		</g>
	</g>
	<g>
		<path fill="none" stroke="#000001" stroke-width="0.75" stroke-miterlimit="10" d="M493.135,133.34
			c0.289,34.492-20.336,63.315-60.544,62.066c-66.463-1.199-68.158-81.074-37.835-121.515
			C439.139,9.26,493.873,79.604,493.135,133.34z"/>
		<path fill="none" stroke="#000001" stroke-width="0.5" stroke-miterlimit="10" d="M428.171,195.242
			c14.557-12.209,33.188-16.622,50.037-17.599 M420.56,194.266c16.877-21.673,44.69-27.699,66.079-29.468 M414.421,192.809
			c16.057-32.028,53.446-40.474,77.453-44.52 M409.031,190.913c12.11-41.323,56.757-54.79,84.032-61.595 M404.037,188.551
			c6.097-48.014,53.036-69.277,86.295-78.373 M399.114,185.481c-0.311-52.201,44.633-82.306,85.022-93.666 M393.993,181.294
			c-6.041-54.352,34.164-92.562,80.438-106.836 M388.136,174.73c-9.762-54.045,23.589-97.823,72.021-115.947 M379.832,158.687
			c-7.37-47.18,16.137-88.85,57.351-110.84"/>
	</g>
	<g>
		<path fill="none" stroke="#000001" stroke-width="0.5" stroke-miterlimit="10" d="M261.651,232.359c0.014,0,0.014,0,0.014,0
			c13.256,3.466,29.553,4.598,46.416,0.552 M248.112,245.982c19.325,6.748,49.062,8.559,73.621,0.453 M237.36,262.237
			c23.229,9.62,65.713,11.516,94.658,0.481 M230.344,279.935c26.695,10.936,77.229,12.308,108.635,0.269 M240.911,353.811h0.014
			c24.503,8.955,55.768,11.784,86.467,0.99 M229.438,332.591h0.014c28.393,12.534,74.909,15.816,110.517,0.424 M226.283,314.737
			c29.256,12.464,82.378,14.472,116.982,0.17 M226.694,296.808c28.209,12.492,87.103,12.752,116.077,1.349"/>
		<path fill="none" stroke="#000001" stroke-width="0.75" stroke-miterlimit="10" d="M343.405,309.363
			c0.289,34.493-20.337,63.317-60.545,62.067c-66.465-1.199-68.159-81.075-37.836-121.518c13.182-17.408,28.717-30.411,48.242-25.01
			C323.919,235.597,343.666,276.35,343.405,309.363z"/>
	</g>
	<g>
		<path fill="none" stroke="#000001" stroke-width="0.75" stroke-miterlimit="10" d="M642.885,309.352
			c1.068,46.366-37.149,71.394-79.166,59.288c-53.98-17.999-44.618-96.094-10.27-129.301c0-0.014,0.014-0.014,0.014-0.014
			c7.204-7.67,16.536-14.181,26.285-15.391c0,0,0-0.014,0.014,0c29.234-2.191,49.802,29.254,58.143,54.479c0.014,0,0.014,0,0,0.014
			C641.195,288.622,642.962,299.43,642.885,309.352z"/>
		<path fill="none" stroke="#000001" stroke-width="0.5" stroke-miterlimit="10" d="M586.75,223.779c0,0,0.014,0,0.014,0.014
			c3.773,3.071,1.562,10.469-3.438,10.285c-4.891,0.172-7.152-6.97-3.579-10.143c0,0,0-0.014,0.014,0 M543.546,251.224
			c-2.051,2.843-3.933,5.871-5.659,9.04C542.767,261.705,546.445,255.195,543.546,251.224z M583.331,248.806
			c-7.052,0.122-7.051,11.505,0,11.627C590.383,260.31,590.382,248.928,583.331,248.806z M608.208,235.629
			c-7.052,0.122-7.051,11.505,0,11.627C615.259,247.133,615.258,235.751,608.208,235.629z M624.989,251.591
			c-2.363,3.805,0.817,9.584,5.305,8.785C628.667,257.335,626.899,254.407,624.989,251.591z M533.573,275.16
			c-0.891,0-1.726,0.24-2.462,0.665c-0.861,2.565-1.65,5.172-2.306,7.809c2.468,5.387,10.255,3.285,10.143-2.66
			C538.949,277.763,536.544,275.16,533.573,275.16z M558.454,261.983c-7.052,0.122-7.051,11.505,0,11.627
			C565.506,273.488,565.505,262.105,558.454,261.983z M583.331,275.161c-7.052,0.122-7.051,11.505,0,11.627
			C590.383,286.665,590.382,275.282,583.331,275.161z M608.208,261.983c-7.052,0.122-7.051,11.505,0,11.627
			C615.259,273.488,615.258,262.105,608.208,261.983z M633.084,275.161c-7.052,0.122-7.051,11.505,0,11.627
			C640.136,286.665,640.135,275.282,633.084,275.161z M533.578,301.515c-7.052,0.122-7.051,11.505,0,11.627
			C540.629,313.019,540.628,301.636,533.578,301.515z M558.454,288.338c-7.052,0.122-7.051,11.505,0,11.627
			C565.506,299.842,565.505,288.459,558.454,288.338z M583.331,301.515c-7.052,0.122-7.051,11.505,0,11.627
			C590.383,313.019,590.382,301.636,583.331,301.515z M608.208,288.338c-7.052,0.122-7.051,11.505,0,11.627
			C615.259,299.842,615.258,288.459,608.208,288.338z M633.084,301.515c-7.052,0.122-7.051,11.505,0,11.627
			C640.136,313.019,640.135,301.636,633.084,301.515z M533.573,327.871c-2.235,0-4.173,1.5-4.966,3.622
			c0.717,2.552,1.598,5,2.589,7.399C539.46,342.536,542.254,328.406,533.573,327.871z M558.454,314.692
			c-7.052,0.122-7.051,11.505,0,11.627C565.506,326.196,565.505,314.813,558.454,314.692z M583.331,327.869
			c-7.052,0.122-7.051,11.505,0,11.627C590.383,339.373,590.382,327.99,583.331,327.869z M608.208,314.692
			c-7.052,0.122-7.051,11.505,0,11.627C615.259,326.196,615.258,314.813,608.208,314.692z M633.084,327.869
			c-7.052,0.122-7.051,11.505,0,11.627C640.136,339.373,640.135,327.99,633.084,327.869z M558.454,341.046
			c-7.052,0.122-7.051,11.505,0,11.627C565.506,352.55,565.505,341.167,558.454,341.046z M583.331,354.223
			c-7.052,0.122-7.051,11.505,0,11.627C590.383,365.727,590.382,354.344,583.331,354.223z M608.208,341.046
			c-7.052,0.122-7.051,11.505,0,11.627C615.259,352.55,615.258,341.167,608.208,341.046z M558.457,363.888
			c-1.287,0-2.461,0.481-3.381,1.287c2.674,1.358,5.56,2.518,8.644,3.466C563.267,365.939,561.074,363.888,558.457,363.888z
			 M608.211,365.289c-2.292,0-4.244,1.542-5.008,3.721c2.744-0.778,5.333-1.74,7.781-2.872
			C610.177,365.6,609.23,365.289,608.211,365.289z M556.987,235.846c0.453-0.127,0.934-0.198,1.471-0.212
			c7.045,0.113,7.045,11.501,0,11.614c-4.442-0.071-6.083-4.598-4.951-7.979"/>
	</g>
	<g>
		<path fill="none" stroke="#000001" stroke-width="0.75" stroke-miterlimit="10" d="M493.099,309.324
			c0.867,36.701-24.298,64.058-60.518,62.04c-17.8-0.321-30.948-6.294-40.075-15.635c-17.123-17.658-19.373-45.452-14.219-68.799
			c2.944-13.338,8.364-26.11,16.48-37.029c10.336-13.658,24.787-28.337,43.3-25.987C472.783,231,493.32,276.551,493.099,309.324z"/>
		<path fill="none" stroke="#000001" stroke-width="0.5" stroke-miterlimit="10" d="M412.01,286.048
			c-7.422-5.577-8.918-16.115-3.341-23.537c4.462-5.938,12.892-7.134,18.829-2.673c4.75,3.569,5.707,10.313,2.138,15.063
			c-2.855,3.8-8.251,4.566-12.051,1.71c-3.04-2.284-3.653-6.601-1.368-9.641c1.827-2.432,5.28-2.922,7.712-1.095
			c1.946,1.462,2.338,4.224,0.876,6.17c-1.17,1.557-3.379,1.87-4.936,0.701 M424.383,225.235c-0.452,1.94-1.928,3.558-3.998,4.081
			c-1.273,0.333-2.57,0.059-3.582-0.643 M432.95,223.688c-0.274,4.641-2.975,8.865-7.139,11.054
			c-0.916,0.488-1.904,0.869-2.951,1.142c-0.131,0.036-0.274,0.071-0.405,0.083h-0.012c-4.129,0.892-8.246-0.726-10.721-3.867
			 M481.089,314.885c1.557,1.17,3.766,0.856,4.936-0.701c1.462-1.946,1.07-4.708-0.876-6.17c-2.432-1.827-5.885-1.337-7.712,1.095
			c-2.284,3.04-1.672,7.356,1.368,9.641c3.8,2.855,9.195,2.09,12.051-1.71c3.569-4.75,2.612-11.494-2.138-15.063
			c-5.938-4.462-14.368-3.265-18.829,2.673c-5.577,7.422-5.236,18.452,5.634,24.029 M447.059,274.454
			c0.472-1.889-0.676-3.803-2.565-4.275c-2.361-0.59-4.753,0.845-5.344,3.206c-0.738,2.951,1.057,5.942,4.008,6.68
			c3.689,0.922,7.427-1.321,8.349-5.01c1.153-4.611-1.651-9.284-6.263-10.437c-5.764-1.441-11.605,2.064-13.046,7.828
			c-1.801,7.205,2.58,14.506,9.785,16.308c9.007,2.251,18.133-3.225,20.384-12.231 M430.261,240.656
			c-2.154-0.964-4.676,0.012-5.628,2.166c-1.202,2.689,0.012,5.842,2.701,7.044c3.367,1.499,7.318-0.024,8.817-3.391
			c1.868-4.2-0.024-9.138-4.236-11.006c-1.987-0.892-4.105-1.095-6.104-0.726c-1.178,0.202-2.32,0.631-3.355,1.226
			c-1.844,1.071-3.379,2.701-4.307,4.795c-2.927,6.568,0.036,14.279,6.616,17.206c8.222,3.653,17.848-0.048,21.501-8.27
			c4.236-9.543,0.571-20.585-8.198-25.785c0,0,0,0-0.012,0 M398.099,245.785c-0.024-0.012-0.059-0.024-0.083-0.036 M392.72,252.781
			c0.535,0.952,1.38,1.737,2.451,2.225c3.367,1.487,7.306-0.024,8.805-3.391c1.594-3.57,0.464-7.651-2.463-9.936 M388.294,259.992
			c1.166,1.285,2.618,2.356,4.307,3.106c8.222,3.653,17.848-0.048,21.501-8.258c3.367-7.568,1.737-16.099-3.463-21.894
			 M448.153,305.55c-1.376,1.831-1.007,4.432,0.824,5.808c2.289,1.72,5.54,1.259,7.26-1.03c2.15-2.862,1.574-6.925-1.288-9.075
			c-3.577-2.688-8.656-1.967-11.344,1.61c-3.36,4.471-2.459,10.82,2.013,14.18c5.589,4.2,13.525,3.073,17.725-2.516
			c4.402-5.858,4.334-13.778,0.078-19.278 M456.976,260.276c-1.43,1.903-1.047,4.606,0.857,6.036
			c2.379,1.788,5.757,1.308,7.545-1.071c2.235-2.974,1.635-7.197-1.339-9.432c-3.718-2.794-8.996-2.044-11.79,1.673
			c-3.492,4.647-2.555,11.245,2.092,14.737c5.809,4.365,14.056,3.194,18.421-2.615c4.575-6.088,4.992-15.164,0.57-20.88
			 M473.063,280.164c-2.401-0.695-4.91,0.688-5.605,3.088c-0.869,3.001,0.86,6.137,3.86,7.006c3.751,1.086,7.672-1.075,8.757-4.826
			c1.357-4.689-1.343-9.59-6.032-10.947c-5.861-1.696-11.987,1.679-13.683,7.54c-2.121,7.326,2.099,14.984,9.425,17.104
			c8.795,2.546,17.973-2.219,21.034-10.713 M453.75,329.052c1.803,1.355,4.363,0.991,5.718-0.812
			c1.694-2.254,1.239-5.454-1.014-7.147c-2.817-2.117-6.817-1.549-8.934,1.268c-2.646,3.522-1.936,8.521,1.585,11.168
			c4.402,3.308,10.652,2.421,13.959-1.981c3.961-5.271,3.11-12.662-1.806-16.909 M463.258,314.639 M462.587,314.099 M486.9,274.794
			c-1.309,0.583-2.88,0.464-4.117-0.464 M488.756,280.458c-2.868,0.773-6.057,0.274-8.615-1.654
			c-3.522-2.642-4.236-7.651-1.583-11.173c1.083-1.452,2.677-2.296,4.343-2.499 M453.75,247.612
			c1.803,1.355,4.363,0.991,5.718-0.812c1.694-2.254,1.239-5.454-1.014-7.147c-2.817-2.117-6.817-1.549-8.934,1.268
			c-2.646,3.522-1.936,8.521,1.585,11.168c4.402,3.308,10.652,2.421,13.959-1.981c1.864-2.48,2.662-5.43,2.473-8.301
			 M415.757,329.955c2.994,2.25,7.246,1.647,9.496-1.348c2.812-3.743,2.058-9.057-1.685-11.87
			c-4.679-3.516-11.321-2.573-14.837,2.106c-4.395,5.848-3.216,14.152,2.632,18.546c7.31,5.493,17.69,4.02,23.183-3.29
			c6.866-9.138,5.025-22.112-4.113-28.979 M400.038,344.652c-2.832,2.451-7.116,2.142-9.567-0.678
			c-3.07-3.546-2.689-8.9,0.857-11.958c4.414-3.831,11.114-3.355,14.945,1.071c4.783,5.521,4.188,13.886-1.345,18.681
			c-3.57,3.082-8.079,4.379-12.422,3.962 M414.936,339.416c-4.554,3.281-7.635,8.521-7.957,14.562
			c-0.451,8.47,6.049,15.702,14.519,16.154c6.776,0.361,12.562-4.839,12.923-11.616c0.289-5.421-3.872-10.05-9.292-10.338
			c-4.337-0.231-8.04,3.097-8.271,7.434c-0.185,3.469,2.478,6.432,5.947,6.617 M444.847,301.418
			c-1.198-11.862-11.564-20.762-23.572-20.035c-9.851,0.597-17.353,9.066-16.756,18.917c0.477,7.881,7.253,13.882,15.133,13.405
			c6.305-0.382,11.106-5.802,10.724-12.107c-0.305-5.044-4.642-8.885-9.685-8.579c-4.035,0.244-7.108,3.713-6.863,7.748
			c0.195,3.228,2.971,5.686,6.199,5.491c2.582-0.156,4.549-2.377,4.393-4.959 M449.521,322.366
			c-11.566,4.078-18.9,15.976-16.84,28.499c1.849,11.243,12.462,18.858,23.705,17.009c8.994-1.479,15.087-9.97,13.607-18.964
			c-1.183-7.195-7.976-12.069-15.171-10.886c-5.756,0.947-9.655,6.381-8.709,12.137c0.757,4.605,5.104,7.724,9.709,6.967
			c3.684-0.606,6.179-4.084,5.574-7.768c-0.485-2.947-3.267-4.944-6.214-4.459 M383.891,309.312
			c-2.796-0.167-5.188,1.951-5.354,4.748c-0.214,3.486,2.439,6.485,5.926,6.699c4.355,0.262,8.103-3.058,8.365-7.425
			c0.333-5.438-3.82-10.126-9.257-10.459c-2.82-0.167-5.462,0.619-7.639,2.082 M378.037,286.931c0.083,0,0.167,0,0.25,0
			c17.36,0.119,27.915,12.541,27.117,25.773c-0.643,10.649-9.793,18.753-20.43,18.098c-2.487-0.143-4.807-0.881-6.818-2.059
			 M390.162,269.309c-2.523-0.143-4.688,1.773-4.843,4.296c-0.19,3.141,2.213,5.854,5.366,6.045
			c3.939,0.238,7.318-2.761,7.556-6.699c0.297-4.926-3.451-9.15-8.365-9.448c-1.249-0.071-2.451,0.059-3.593,0.369 M406.999,280.541
			c-3.272,5.247-9.245,8.591-15.861,8.186c-5.021-0.309-9.269-3.236-11.47-7.377 M463.5,333.402
			c0.01,6.632,4.882,12.429,11.641,13.407c5.94,0.86,11.453-3.259,12.313-9.199c0.688-4.752-2.607-9.163-7.359-9.851
			c-3.802-0.55-7.33,2.086-7.88,5.887c-0.44,3.042,1.668,5.864,4.71,6.304c2.433,0.352,4.691-1.335,5.044-3.768"/>
	</g>
	<g>
		<path fill="#FFFFFF" stroke="#000000" stroke-width="0.1" stroke-miterlimit="10" d="M624.372,623.488
			c-74.475,2.102-87.141-88.158-49.111-138.653c9.589-13.905,25.62-30.38,47.727-30.38c43.269,1.399,70.563,56.303,70.228,96.154
			C693.9,592.011,666.167,624.035,624.372,623.488z"/>
		<path fill="none" stroke="#000001" stroke-width="0.5" stroke-miterlimit="10" d="M603,471.853
			c5.113-2.367,7.044,6.732,11.332,7.356c3.197,0.339,6.847-5.602,10.228-5.574c3.24,0.014,6.819,6.012,10.172,5.687
			c3.253-0.316,5.588-6.952,8.941-7.569 M586.392,488.108c3.826,5.611,10.493-3.189,15.477-2.221
			c3.692,0.778,6.423,8.587,10.412,9.026c3.791,0.396,8.12-6.621,12.11-6.607c3.834,0.028,8.064,7.13,12.039,6.748
			c3.805-0.382,6.592-8.134,10.497-8.941c4.369-0.928,10.937,7.341,14.868,2.9 M578.484,499.595
			c5.14,11.938,11.785-0.031,19.721,0.594c4.272,0.906,7.427,9.917,12.039,10.412c4.371,0.481,9.365-7.639,13.977-7.611
			c4.428,0.028,9.323,8.219,13.892,7.781c4.414-0.424,7.625-9.393,12.124-10.313c6.747-0.664,14.562,10.966,19.141,0.325
			 M571.962,513.374c6.112,14.264,13.159,0.508,22.592,1.117c4.852,1.033,8.403,11.261,13.652,11.813
			c4.951,0.538,10.61-8.658,15.844-8.63c5.008,0.028,10.568,9.323,15.759,8.828c4.994-0.495,8.644-10.653,13.751-11.699
			c8.268-0.642,16.479,12.908,22.069-0.339 M567.082,530.308c0.014,0.014,0,0.014,0,0.014c5.782,11.36,15.466-2.707,23.823-1.528
			c5.418,1.16,9.393,12.591,15.25,13.214c5.546,0.608,11.883-9.691,17.726-9.648c5.602,0.028,11.813,10.426,17.627,9.86
			c5.574-0.538,9.662-11.912,15.363-13.086c7.523-1.086,18.11,12.982,23.526,1.782c0,0,0,0,0-0.014 M581.228,596.458
			c4.145-1.627,8.813-4.612,12.279-3.721c5.008,1.273,8.375,11.841,13.737,12.548c5.149,0.679,11.133-8.63,16.523-8.573
			c5.206,0.057,11.006,9.507,16.339,8.898c5.178-0.594,8.672-11.091,13.892-12.378c3.183-0.792,7.54,1.981,11.586,3.636
			 M570.915,580.571c5.416,3.906,14.164-5.869,20.329-4.343c5.305,1.273,8.997,12.477,14.684,13.185
			c5.461,0.665,11.742-9.28,17.457-9.238c5.503,0.057,11.629,10.129,17.316,9.507c5.461-0.608,9.252-11.742,14.826-13.029
			c6.116-1.487,15.665,9.573,21.149,3.65 M566.063,563.199v0.014c5.832,7.453,15.88-5.119,23.243-3.466
			c5.659,1.33,9.577,13.27,15.632,14.076c5.828,0.764,12.675-9.733,18.716-9.563c5.927,0.17,12.223,11.049,18.207,10.539
			c5.927-0.509,10.214-12.265,16.071-13.538c7.103-1.506,18.263,11.727,23.512,2.561 M565.101,549.236
			c6.071,3.018,15.347-7.585,22.14-6.125c5.998,1.259,10.398,13.906,16.877,14.599c6.126,0.665,13.128-10.709,19.607-10.667
			c6.182,0.028,13.043,11.53,19.466,10.907c6.182-0.608,10.681-13.171,17.004-14.472c6.421-1.342,15.794,9.522,22.225,6.196"/>
		<path fill="none" stroke="#000001" stroke-width="0.75" stroke-miterlimit="10" d="M682.415,550.583
			c0.289,34.492-20.336,63.315-60.544,62.066c-66.463-1.199-68.158-81.074-37.835-121.515
			C628.42,426.503,683.153,496.847,682.415,550.583z"/>
	</g>
	<g>
		<path fill="#FFFFFF" stroke="#000000" stroke-width="0.1" stroke-miterlimit="10" d="M266.247,623.671
			c-74.475,2.101-87.143-88.156-49.113-138.652c9.589-13.904,25.62-30.38,47.727-30.38c43.269,1.399,70.562,56.303,70.228,96.154
			C335.775,592.196,308.043,624.22,266.247,623.671z"/>
		<path fill="none" stroke="#000001" stroke-width="0.75" stroke-miterlimit="10" d="M324.289,550.767
			c0.289,34.492-20.336,63.315-60.544,62.066c-66.463-1.199-68.158-81.074-37.835-121.515
			C270.294,426.686,325.027,497.03,324.289,550.767z"/>
		<g>
			<path fill="none" stroke="#000001" stroke-width="0.4889" stroke-miterlimit="10" d="M207.031,549.72
				c1.825-0.622,3.593-1.627,5.178-2.829c-1.471-3.593-1.938-7.526-1.075-10.454c2.263-7.342,8.021-4.796,7.201,1.57
				c-0.495,3.056-2.928,6.423-6.126,8.884c1.783,4.329,5.036,8.148,9.21,9.068c4.088,0.905,8.573-1.316,11.912-4.584
				c-1.867-3.395-2.773-7.257-2.278-10.271c1.372-7.554,7.512-5.659,7.37,0.764c-0.17,3.056-2.193,6.677-5.093,9.507
				c2.235,4.103,5.857,7.526,10.072,8.021c4.145,0.453,8.361-2.207,11.346-5.786c-2.207-3.211-3.551-6.974-3.31-9.973
				c0.594-7.639,6.932-6.465,7.427,0.042c0.127,3.042-1.528,6.833-4.117,9.931c2.716,3.905,6.734,7.017,10.808,6.989
				c3.961,0.141,7.908-2.9,10.596-6.748c0-0.014,0-0.014,0-0.014c-2.462-3.013-4.032-6.691-4.159-9.747
				c-0.099-3.848,1.5-5.574,3.211-5.574c1.712-0.057,3.622,1.655,4.173,4.852c0.509,3.013-0.849,7.059-3.225,10.469c0,0,0,0,0,0.014
				c2.943,3.622,7.144,6.281,11.586,5.715c4.301-0.594,7.823-3.89,9.973-7.795c-2.787-2.716-4.796-6.196-5.234-9.252
				c-0.948-7.611,5.447-7.738,7.257-1.471c0.778,3.042-0.042,7.144-2.023,10.723c3.324,3.225,7.781,5.376,12.053,4.456
				c4.216-1.019,7.441-4.683,9.139-8.955c-3.141-2.377-5.588-5.546-6.281-8.531c-1.768-7.455,4.584-8.148,7.045-2.249
				c1.019,3.225,0.665,7.215-0.764,10.78c1.655,1.245,3.494,2.278,5.362,2.914"/>
			<path fill="none" stroke="#000001" stroke-width="0.5" stroke-miterlimit="10" d="M219.485,566.557
				c-0.429,1.966-2.485,3.255-4.566,2.735c-2.079-0.534-3.341-2.557-2.82-4.516s2.554-3.133,4.539-2.622
				C218.628,562.652,219.92,564.561,219.485,566.557z M240.924,566.506c-2.04-0.281-3.926,1.119-4.211,3.127
				c-0.285,2.007,1.2,3.87,3.317,4.16c2.118,0.284,4.016-1.231,4.223-3.232C244.465,568.529,242.965,566.781,240.924,566.506z
				 M265.575,568.199c-2.06-0.047-3.789,1.557-3.862,3.583c-0.073,2.026,1.599,3.708,3.735,3.757
				c2.136,0.048,3.865-1.551,3.862-3.601C269.306,569.934,267.634,568.247,265.575,568.199z M290.244,567.292
				c-1.025,0.105-1.917,0.614-2.54,1.342c-0.625,0.702-0.979,1.642-0.903,2.653c0.076,1.011,0.571,1.901,1.319,2.522
				c0.745,0.595,1.743,0.902,2.805,0.794c2.13-0.22,3.669-2.031,3.439-4.046C294.133,568.542,292.289,567.08,290.244,567.292z
				 M314.585,563.536c-2.01,0.405-3.321,2.348-2.93,4.337c0.392,1.989,2.415,3.257,4.518,2.831c2.112-0.389,3.382-2.526,2.901-4.461
				C318.578,564.243,316.603,563.168,314.585,563.536z"/>
			<path fill="none" stroke="#000001" stroke-width="0.5033" stroke-miterlimit="10" d="M215.674,511.283
				c0.424,0.283,0.891,0.495,1.386,0.608c4.866,1.118,12.492-9.478,17.952-8.672c5.022,0.736,8.842,13.057,14.274,13.468
				c5.121,0.382,10.921-11.204,16.339-11.176c5.178,0.028,10.865,11.671,16.24,11.303c5.178-0.354,9.068-12.633,14.359-13.383
				c5.149-0.736,12.704,9.917,17.91,8.757c0.453-0.099,0.863-0.283,1.259-0.552"/>
			<path fill="none" stroke="#000001" stroke-width="0.5" stroke-miterlimit="10" d="M213.057,583.559
				c5.362-1.401,12.11-7.286,17.132-6.21c5.814,1.231,10.087,13.51,16.382,14.189c5.956,0.637,12.746-10.412,19.027-10.37
				c6.012,0.042,12.675,11.19,18.9,10.582c5.998-0.58,10.37-12.775,16.495-14.034c4.753-0.976,11.416,5.008,16.934,6.366"/>
			<path fill="none" stroke="#000001" stroke-width="0.5" stroke-miterlimit="10" d="M265.561,487.905
				c-1.94-0.047-3.484-1.223-3.406-4.455c0.059-2.42,3.689-7.251,3.689-7.251s3.396,4.885,3.334,7.421
				C269.1,486.852,267.5,487.952,265.561,487.905z M276.62,475.875c-2.33-1.004-8.129,0.324-8.129,0.324s3.128,5.172,5.35,6.129
				c2.97,1.279,4.637,0.285,5.404-1.497C280.013,479.048,279.59,477.154,276.62,475.875z M252.029,480.83
				c0.767,1.782,2.435,2.776,5.404,1.497c2.223-0.957,5.35-6.129,5.35-6.129s-5.799-1.327-8.129-0.324
				C251.684,477.154,251.262,479.048,252.029,480.83z"/>
			<circle fill="none" stroke="#000001" stroke-width="0.5" stroke-miterlimit="10" cx="265.637" cy="471.847" r="2.247"/>
			<path fill="none" stroke="#000001" stroke-width="0.5" stroke-miterlimit="10" d="M287.076,495.953
				c-0.174-2.022,1.355-3.81,3.411-4.011c2.045-0.255,3.927,1.167,4.202,3.175c0.275,2.009-1.246,3.855-3.399,4.122
				C289.136,499.452,287.249,497.971,287.076,495.953z M265.624,500.526c2.148-0.025,3.862-1.69,3.83-3.717
				c-0.032-2.027-1.747-3.65-3.829-3.625c-2.075-0.033-3.789,1.585-3.83,3.612C261.755,498.823,263.469,500.493,265.624,500.526z
				 M239.946,499.05c2.148,0.23,4.044-1.22,4.235-3.239c0.191-2.018-1.323-3.833-3.381-4.053c-2.058-0.221-3.941,1.135-4.225,3.156
				C236.294,496.909,237.798,498.819,239.946,499.05z"/>
			<path fill="none" stroke="#000001" stroke-width="0.5" stroke-miterlimit="10" d="M213.651,516.277
				c0.439-0.325,0.707-0.538,0.707-0.538s0.354,1.301,0.651,2.9c0.297,1.57,0.552,3.438,0.184,4.555
				c-0.905,2.858-2.688,3.409-4.442,2.773c-0.071-0.028-0.127-0.042-0.184-0.071 M236.47,527.641
				c0.181-1.163-0.355-2.955-0.905-4.468c-0.55-1.529-1.12-2.763-1.12-2.763s-0.96,0.982-2,2.235
				c-1.037,1.252-2.163,2.781-2.383,3.87c-0.597,2.948,0.668,4.241,2.488,4.573C234.369,531.435,236.012,530.603,236.47,527.641z
				 M258.075,529.276c0.059-1.173-0.66-2.92-1.374-4.372c-0.716-1.453-1.432-2.611-1.432-2.611s-0.857,1.087-1.751,2.454
				c-0.893,1.373-1.826,3.004-1.914,4.115c-0.237,2.996,1.154,4.147,2.973,4.255C256.397,533.228,257.927,532.266,258.075,529.276z
				 M279.718,528.945c-0.046-1.167-0.918-2.848-1.756-4.236c-0.841-1.387-1.653-2.482-1.653-2.482s-0.756,1.155-1.527,2.591
				c-0.769,1.436-1.559,3.153-1.55,4.274c0.021,2.996,1.509,4.018,3.336,3.977C278.394,533.025,279.838,531.946,279.718,528.945z
				 M301.245,526.457c-0.171-1.162-1.216-2.73-2.193-4.011c-0.979-1.28-1.896-2.274-1.896-2.274s-0.628,1.226-1.248,2.721
				c-0.617,1.496-1.229,3.275-1.106,4.389c0.326,2.977,1.917,3.859,3.74,3.65C300.36,530.674,301.684,529.419,301.245,526.457z
				 M317.29,516.277c-0.17,0.523-0.424,1.372-0.679,2.334c-0.41,1.57-0.806,3.395-0.538,4.484c0.693,2.914,2.391,3.622,4.187,3.126
				c0.099-0.028,0.184-0.057,0.283-0.085"/>
			<path fill="none" stroke="#000001" stroke-width="0.5" stroke-miterlimit="10" d="M230.013,597.896
				c0.206-1.388,4.126-5.113,4.88-5.715c0.372,0.902,1.945,6.011,1.411,7.375C235.214,604.999,228.262,603.158,230.013,597.896z
				 M257.884,604.784c0.434-1.405-1.547-6.382-2.024-7.249c-0.706,0.655-4.295,4.725-4.362,6.128
				C250.256,609.058,257.211,610.251,257.884,604.784z M279.815,603.831c0.025-1.46-3.266-5.71-3.96-6.409
				c-0.499,0.833-2.816,5.716-2.492,7.098C273.654,610.025,280.699,609.28,279.815,603.831z M301.347,597.572
				c-0.254-1.446-4.249-4.967-5.062-5.53c-0.331,0.913-1.727,6.096-1.158,7.399C296.429,604.842,303.238,602.79,301.347,597.572z"/>
		</g>
	</g>
	<g>
		<path fill="#FFFFFF" stroke="#000000" stroke-width="0.1" stroke-miterlimit="10" d="M445.308,623.671
			c-74.476,2.102-87.143-88.155-49.113-138.652c9.589-13.905,25.62-30.38,47.727-30.38c43.269,1.399,70.563,56.303,70.228,96.154
			C514.835,592.196,487.104,624.22,445.308,623.671z"/>
		<path fill="none" stroke="#000001" stroke-width="0.75" stroke-miterlimit="10" d="M503.349,550.767
			c0.289,34.492-20.336,63.315-60.544,62.066c-66.463-1.199-68.158-81.074-37.835-121.515
			C449.354,426.686,504.087,497.03,503.349,550.767z"/>
		<path fill="none" stroke="#000001" stroke-width="0.5" stroke-miterlimit="10" d="M438.386,612.669
			c14.557-12.209,33.188-16.622,50.037-17.599 M430.775,611.693c16.877-21.673,44.69-27.699,66.079-29.468 M424.635,610.236
			c16.057-32.028,53.446-40.474,77.453-44.52 M419.245,608.34c12.11-41.323,56.757-54.79,84.032-61.595 M414.252,605.978
			c6.097-48.014,53.036-69.277,86.295-78.373 M409.328,602.908c-0.311-52.201,44.633-82.306,85.022-93.666 M404.207,598.72
			c-6.041-54.352,34.164-92.562,80.438-106.836 M398.351,592.156c-9.762-54.045,23.589-97.823,72.021-115.947 M390.046,576.114
			c-7.37-47.18,16.137-88.85,57.351-110.84"/>
	</g>
	<g>
		<path fill="#FFFFFF" stroke="#000000" stroke-width="0.1" stroke-miterlimit="10" d="M266.246,818.297
			c-74.477,2.101-87.141-88.16-49.112-138.656c9.589-13.905,25.621-30.38,47.728-30.38c43.271,1.399,70.564,56.303,70.23,96.156
			C335.776,786.821,308.042,818.845,266.246,818.297z"/>
		<path fill="none" stroke="#000001" stroke-width="0.5" stroke-miterlimit="10" d="M242.536,668.387c0.014,0,0.014,0,0.014,0
			c13.256,3.466,29.553,4.598,46.416,0.552 M228.997,682.01c19.325,6.748,49.062,8.559,73.621,0.453 M218.246,698.265
			c23.229,9.62,65.713,11.516,94.658,0.481 M211.229,715.963c26.695,10.936,77.229,12.308,108.635,0.269 M221.797,789.839h0.014
			c24.503,8.955,55.768,11.784,86.467,0.99 M210.323,768.619h0.014c28.393,12.534,74.909,15.816,110.517,0.424 M207.169,750.765
			c29.256,12.464,82.378,14.472,116.982,0.17 M207.579,732.836c28.209,12.492,87.103,12.752,116.077,1.349"/>
		<path fill="none" stroke="#000001" stroke-width="0.75" stroke-miterlimit="10" d="M324.29,745.391
			c0.289,34.493-20.337,63.317-60.545,62.067c-66.465-1.199-68.159-81.075-37.836-121.518
			C270.294,621.308,325.028,691.653,324.29,745.391z"/>
	</g>
	<g>
		<path fill="#FFFFFF" stroke="#000000" stroke-width="0.1" stroke-miterlimit="10" d="M624.078,818.501
			c-82.366-0.05-87.027-103.689-38.768-150.726c41.258-44.744,89.485-0.92,102.59,43.908
			C704.827,762.815,682.477,817.738,624.078,818.501z"/>
		<path fill="none" stroke="#000001" stroke-width="0.75" stroke-miterlimit="10" d="M682.428,745.38
			c1.068,46.366-37.149,71.394-79.166,59.289c-53.98-17.999-44.618-96.094-10.27-129.301c0-0.014,0.014-0.014,0.014-0.014
			c7.204-7.67,16.536-14.181,26.285-15.391c0,0,0-0.014,0.014,0c29.234-2.191,49.802,29.254,58.143,54.479c0.014,0,0.014,0,0,0.014
			C680.739,724.651,682.506,735.458,682.428,745.38z"/>
		<path fill="none" stroke="#000001" stroke-width="0.5" stroke-miterlimit="10" d="M626.294,659.807c0,0,0.014,0,0.014,0.014
			c3.773,3.071,1.562,10.469-3.438,10.285c-4.891,0.172-7.152-6.97-3.579-10.143c0,0,0-0.014,0.014,0 M583.09,687.252
			c-2.051,2.843-3.933,5.871-5.659,9.04C582.311,697.733,585.989,691.223,583.09,687.252z M622.875,684.834
			c-7.052,0.122-7.051,11.505,0,11.627C629.927,696.339,629.925,684.956,622.875,684.834z M647.751,671.657
			c-7.052,0.122-7.051,11.505,0,11.627C654.803,683.161,654.802,671.779,647.751,671.657z M664.533,687.619
			c-2.363,3.805,0.817,9.584,5.305,8.785C668.211,693.363,666.443,690.435,664.533,687.619z M573.117,711.188
			c-0.891,0-1.726,0.24-2.462,0.665c-0.861,2.565-1.65,5.172-2.306,7.809c2.468,5.387,10.255,3.285,10.143-2.66
			C578.492,713.791,576.087,711.188,573.117,711.188z M597.998,698.012c-7.052,0.122-7.051,11.505,0,11.627
			C605.05,709.516,605.049,698.133,597.998,698.012z M622.875,711.189c-7.052,0.122-7.051,11.505,0,11.627
			C629.927,722.693,629.925,711.31,622.875,711.189z M647.751,698.012c-7.052,0.122-7.051,11.505,0,11.627
			C654.803,709.516,654.802,698.133,647.751,698.012z M672.628,711.189c-7.052,0.122-7.051,11.505,0,11.627
			C679.68,722.693,679.679,711.31,672.628,711.189z M573.121,737.543c-7.052,0.122-7.051,11.505,0,11.627
			C580.173,749.047,580.172,737.664,573.121,737.543z M597.998,724.366c-7.052,0.122-7.051,11.505,0,11.627
			C605.05,735.87,605.049,724.487,597.998,724.366z M622.875,737.543c-7.052,0.122-7.051,11.505,0,11.627
			C629.927,749.047,629.925,737.664,622.875,737.543z M647.751,724.366c-7.052,0.122-7.051,11.505,0,11.627
			C654.803,735.87,654.802,724.487,647.751,724.366z M672.628,737.543c-7.052,0.122-7.051,11.505,0,11.627
			C679.68,749.047,679.679,737.664,672.628,737.543z M573.117,763.899c-2.235,0-4.173,1.5-4.966,3.622
			c0.717,2.552,1.598,5,2.589,7.399C579.004,778.564,581.798,764.434,573.117,763.899z M597.998,750.72
			c-7.052,0.122-7.051,11.505,0,11.627C605.05,762.224,605.049,750.841,597.998,750.72z M622.875,763.897
			c-7.052,0.122-7.051,11.505,0,11.627C629.927,775.401,629.925,764.018,622.875,763.897z M647.751,750.72
			c-7.052,0.122-7.051,11.505,0,11.627C654.803,762.224,654.802,750.841,647.751,750.72z M672.628,763.897
			c-7.052,0.122-7.051,11.505,0,11.627C679.68,775.401,679.679,764.018,672.628,763.897z M597.998,777.074
			c-7.052,0.122-7.051,11.505,0,11.627C605.05,788.578,605.049,777.195,597.998,777.074z M622.875,790.251
			c-7.052,0.122-7.051,11.505,0,11.627C629.927,801.755,629.925,790.373,622.875,790.251z M647.751,777.074
			c-7.052,0.122-7.051,11.505,0,11.627C654.803,788.578,654.802,777.195,647.751,777.074z M598.001,799.916
			c-1.287,0-2.462,0.481-3.381,1.287c2.674,1.358,5.56,2.518,8.644,3.466C602.811,801.968,600.618,799.916,598.001,799.916z
			 M647.755,801.317c-2.292,0-4.244,1.542-5.008,3.721c2.744-0.778,5.333-1.74,7.781-2.872
			C649.721,801.628,648.773,801.317,647.755,801.317z M596.531,671.875c0.453-0.127,0.934-0.198,1.471-0.212
			c7.045,0.113,7.045,11.501,0,11.615c-4.442-0.071-6.083-4.598-4.951-7.979"/>
	</g>
	<g>
		<path fill="#FFFFFF" stroke="#000000" stroke-width="0.1" stroke-miterlimit="10" d="M446.533,818.297
			c-75.601,2.78-88.595-87.817-50.332-138.657c19.937-30.742,56.406-43.542,86.967-11.869
			C529.83,714.72,527.862,815.888,446.533,818.297z"/>
		<path fill="none" stroke="#000001" stroke-width="0.75" stroke-miterlimit="10" d="M503.313,745.352
			c0.867,36.701-24.298,64.058-60.518,62.04c-47.246,0.37-63.802-45.487-54.293-84.434c2.943-13.337,8.363-26.109,16.479-37.029
			C449.619,621.274,504.039,691.855,503.313,745.352z"/>
		<path fill="none" stroke="#000001" stroke-width="0.5" stroke-miterlimit="10" d="M422.224,722.077
			c-7.422-5.577-8.918-16.115-3.341-23.537c4.462-5.938,12.892-7.134,18.829-2.673c4.75,3.569,5.707,10.313,2.138,15.063
			c-2.855,3.8-8.251,4.566-12.051,1.71c-3.04-2.284-3.653-6.601-1.368-9.641c1.827-2.432,5.28-2.922,7.712-1.095
			c1.946,1.462,2.338,4.224,0.876,6.17c-1.17,1.556-3.379,1.87-4.936,0.701 M434.598,661.263c-0.452,1.94-1.928,3.558-3.998,4.081
			c-1.273,0.333-2.57,0.06-3.582-0.643 M443.165,659.717c-0.274,4.641-2.975,8.865-7.139,11.054
			c-0.916,0.488-1.904,0.869-2.951,1.142c-0.131,0.036-0.274,0.071-0.405,0.083h-0.012c-4.129,0.892-8.246-0.726-10.721-3.867
			 M491.304,750.913c1.556,1.17,3.766,0.856,4.936-0.701c1.462-1.946,1.07-4.708-0.876-6.17c-2.432-1.827-5.885-1.337-7.712,1.095
			c-2.284,3.04-1.672,7.356,1.368,9.641c3.8,2.855,9.195,2.09,12.051-1.71c3.569-4.75,2.612-11.494-2.138-15.063
			c-5.938-4.462-14.368-3.265-18.829,2.673c-5.577,7.422-5.236,18.452,5.634,24.029 M457.273,710.482
			c0.472-1.889-0.676-3.803-2.565-4.275c-2.361-0.59-4.753,0.845-5.344,3.206c-0.738,2.951,1.057,5.942,4.008,6.68
			c3.689,0.922,7.427-1.321,8.349-5.01c1.153-4.611-1.651-9.284-6.263-10.437c-5.764-1.441-11.605,2.064-13.046,7.828
			c-1.801,7.205,2.58,14.506,9.785,16.308c9.007,2.251,18.133-3.225,20.384-12.231 M440.476,676.684
			c-2.154-0.964-4.676,0.012-5.628,2.166c-1.202,2.689,0.012,5.842,2.701,7.044c3.367,1.499,7.318-0.024,8.817-3.391
			c1.868-4.2-0.024-9.138-4.236-11.006c-1.987-0.892-4.105-1.095-6.104-0.726c-1.178,0.202-2.32,0.631-3.355,1.226
			c-1.844,1.071-3.379,2.701-4.307,4.795c-2.927,6.568,0.036,14.279,6.616,17.206c8.222,3.653,17.848-0.048,21.501-8.27
			c4.236-9.543,0.571-20.585-8.198-25.785c0,0,0,0-0.012,0 M408.313,681.813c-0.024-0.012-0.059-0.024-0.083-0.036 M402.935,688.809
			c0.535,0.952,1.38,1.737,2.451,2.225c3.367,1.487,7.306-0.024,8.805-3.391c1.594-3.57,0.464-7.651-2.463-9.936 M398.508,696.02
			c1.166,1.285,2.618,2.356,4.307,3.106c8.222,3.653,17.848-0.048,21.501-8.258c3.367-7.568,1.737-16.099-3.463-21.894
			 M458.367,741.578c-1.376,1.831-1.007,4.432,0.824,5.808c2.289,1.72,5.54,1.259,7.26-1.03c2.15-2.862,1.574-6.925-1.288-9.075
			c-3.577-2.688-8.656-1.967-11.344,1.61c-3.36,4.471-2.459,10.82,2.013,14.18c5.589,4.2,13.525,3.073,17.725-2.516
			c4.402-5.858,4.334-13.778,0.078-19.278 M467.191,696.304c-1.43,1.903-1.047,4.606,0.857,6.036
			c2.379,1.788,5.757,1.308,7.545-1.071c2.235-2.974,1.635-7.197-1.339-9.432c-3.718-2.794-8.996-2.044-11.79,1.673
			c-3.492,4.647-2.555,11.245,2.092,14.737c5.809,4.365,14.056,3.194,18.421-2.615c4.575-6.088,4.992-15.164,0.57-20.88
			 M483.278,716.192c-2.401-0.695-4.91,0.688-5.605,3.088c-0.869,3.001,0.86,6.137,3.86,7.006c3.751,1.086,7.672-1.075,8.757-4.826
			c1.357-4.688-1.343-9.59-6.032-10.947c-5.861-1.696-11.987,1.679-13.683,7.54c-2.121,7.326,2.099,14.984,9.425,17.104
			c8.795,2.546,17.973-2.219,21.034-10.713 M463.965,765.081c1.803,1.355,4.363,0.992,5.718-0.812
			c1.694-2.254,1.239-5.454-1.014-7.147c-2.817-2.117-6.817-1.549-8.934,1.268c-2.646,3.522-1.936,8.521,1.585,11.168
			c4.402,3.308,10.652,2.421,13.959-1.981c3.961-5.271,3.11-12.662-1.807-16.909 M473.472,750.667 M472.802,750.127
			 M497.114,710.822c-1.309,0.583-2.88,0.464-4.117-0.464 M498.97,716.486c-2.868,0.773-6.056,0.274-8.615-1.654
			c-3.522-2.642-4.236-7.651-1.583-11.173c1.083-1.452,2.677-2.296,4.343-2.499 M463.965,683.64
			c1.803,1.355,4.363,0.991,5.718-0.812c1.694-2.254,1.239-5.454-1.014-7.147c-2.817-2.117-6.817-1.549-8.934,1.268
			c-2.646,3.521-1.936,8.521,1.585,11.168c4.402,3.308,10.652,2.421,13.959-1.981c1.864-2.48,2.662-5.43,2.473-8.301
			 M425.972,765.983c2.994,2.25,7.246,1.647,9.496-1.348c2.812-3.743,2.058-9.057-1.685-11.87
			c-4.679-3.516-11.321-2.573-14.837,2.106c-4.395,5.848-3.216,14.152,2.632,18.546c7.31,5.493,17.69,4.02,23.183-3.291
			c6.866-9.138,5.025-22.112-4.113-28.979 M410.253,780.68c-2.832,2.451-7.115,2.142-9.567-0.678
			c-3.07-3.546-2.689-8.9,0.857-11.958c4.414-3.831,11.113-3.355,14.945,1.071c4.783,5.521,4.188,13.886-1.345,18.681
			c-3.57,3.082-8.079,4.379-12.422,3.962 M425.15,775.444c-4.554,3.281-7.635,8.521-7.957,14.562
			c-0.451,8.47,6.049,15.702,14.519,16.154c6.776,0.361,12.562-4.839,12.923-11.615c0.289-5.421-3.872-10.05-9.292-10.338
			c-4.337-0.231-8.04,3.097-8.271,7.434c-0.185,3.469,2.478,6.432,5.947,6.617 M455.062,737.446
			c-1.198-11.862-11.564-20.762-23.572-20.035c-9.851,0.597-17.353,9.066-16.756,18.917c0.477,7.881,7.253,13.882,15.133,13.405
			c6.305-0.382,11.106-5.802,10.724-12.107c-0.305-5.044-4.642-8.885-9.685-8.579c-4.035,0.244-7.108,3.713-6.863,7.748
			c0.195,3.228,2.971,5.686,6.199,5.491c2.582-0.156,4.549-2.377,4.393-4.959 M459.736,758.394
			c-11.566,4.078-18.9,15.976-16.84,28.499c1.849,11.243,12.462,18.858,23.705,17.009c8.994-1.479,15.087-9.97,13.607-18.964
			c-1.183-7.195-7.976-12.069-15.171-10.886c-5.756,0.947-9.655,6.38-8.709,12.137c0.757,4.605,5.104,7.724,9.709,6.967
			c3.684-0.606,6.179-4.084,5.574-7.768c-0.485-2.947-3.267-4.944-6.214-4.459 M394.106,745.341
			c-2.796-0.167-5.188,1.951-5.354,4.748c-0.214,3.486,2.439,6.485,5.926,6.699c4.355,0.262,8.103-3.058,8.365-7.425
			c0.333-5.438-3.82-10.126-9.257-10.459c-2.82-0.167-5.462,0.619-7.639,2.082 M388.252,722.959c0.083,0,0.167,0,0.25,0
			c17.36,0.119,27.915,12.541,27.117,25.773c-0.643,10.649-9.793,18.753-20.43,18.098c-2.487-0.143-4.807-0.88-6.818-2.058
			 M400.377,705.337c-2.523-0.143-4.688,1.773-4.843,4.295c-0.19,3.141,2.213,5.854,5.366,6.045c3.939,0.238,7.318-2.76,7.556-6.699
			c0.297-4.926-3.451-9.15-8.365-9.448c-1.249-0.071-2.451,0.059-3.593,0.369 M417.213,716.569
			c-3.272,5.247-9.245,8.591-15.861,8.186c-5.021-0.309-9.269-3.236-11.47-7.377 M473.715,769.43
			c0.01,6.632,4.882,12.429,11.641,13.407c5.94,0.86,11.453-3.259,12.313-9.199c0.688-4.752-2.607-9.163-7.359-9.851
			c-3.802-0.55-7.33,2.086-7.88,5.887c-0.44,3.042,1.668,5.864,4.71,6.304c2.433,0.352,4.691-1.335,5.044-3.768"/>
	</g>
</g>
<g id="DXF">
</g>
<g id="Watermark" display="none" opacity="0.6">
</g>
<g id="Logo">
</g>
</svg>
