<?xml version="1.0" encoding="utf-8"?>
<!-- Generator: Adobe Illustrator 16.0.0, SVG Export Plug-In . SVG Version: 6.00 Build 0)  -->
<!DOCTYPE svg PUBLIC "-//W3C//DTD SVG 1.1//EN" "http://www.w3.org/Graphics/SVG/1.1/DTD/svg11.dtd">
<svg version="1.1" xmlns="http://www.w3.org/2000/svg" xmlns:xlink="http://www.w3.org/1999/xlink" x="0px" y="0px" width="864px"
	 height="864px" viewBox="0 0 864 864" enable-background="new 0 0 864 864" xml:space="preserve">
<g id="Background">
</g>
<g id="Theme_Set">
</g>
<g id="Design_Elements">
	<path fill="#BCBEC0" d="M653.349,563.797c-2.113-2.744-5.148-4.537-8.598-5.045c7.773-0.408,13.125-7.422,12.807-14.949
		c-0.312-7.523-6.359-14.051-14.113-13.74c7.129-1.73,11.26-9.053,9.965-16.133c-1.428-7.805-8.699-13.832-16.777-11.84
		c7.232-3.42,9.332-12.393,5.771-19.258c-3.449-6.654-11.559-10.355-18.535-6.721c6.367-5.164,5.855-14.645,0.496-20.354
		c-5.225-5.566-14.268-7.242-19.996-1.438c4.941-7.623-0.082-16.93-7.807-20.133c-6.908-2.866-15.824-0.979-18.613,6.611
		c1.318-9.056-7.615-15.206-15.912-14.684c-7.684,0.483-15.193,6.259-13.998,14.635c-2.766-7.617-11.672-9.508-18.598-6.68
		c-7.74,3.162-12.789,12.484-7.869,20.113c-5.702-5.803-14.79-4.188-20.003,1.395c-5.348,5.723-5.925,15.162,0.455,20.359
		c-6.97-3.654-15.095,0.031-18.553,6.688c-3.564,6.863-1.495,15.83,5.739,19.266c-7.921-1.963-15.183,3.811-16.731,11.475
		c-1.447,7.172,2.585,14.707,9.873,16.488c-7.375-0.307-13.305,5.613-14.058,12.762c-0.826,7.84,4.565,15.479,12.713,15.926
		c-7.806,1.139-12.55,8.85-11.318,16.414c1.195,7.346,7.714,13.109,15.341,12.051c-7.534,2.646-10.581,11.201-7.854,18.42
		c2.634,6.979,10.261,11.457,17.549,8.754c-6.861,4.262-7.769,13.547-3.341,19.934c4.303,6.207,12.902,8.979,19.381,4.314
		c-5.764,6.262-3.339,15.475,2.872,20.369c6.049,4.764,15.645,4.873,20.174-2.018c-1.547,3.898-0.883,8.316,1.586,11.68
		c2.482,3.383,6.268,5.514,10.346,6.322c7.492,1.488,16.191-2.539,17.037-10.779c0.768,8.248,9.521,12.299,16.998,10.844
		c3.963-0.771,7.689-2.805,10.168-6.035c2.613-3.404,3.402-7.896,1.824-11.928c4.512,6.91,14.107,6.816,20.17,2.068
		c6.23-4.879,8.672-14.092,2.918-20.369c6.59,4.758,15.326,1.846,19.584-4.545c4.195-6.412,3.291-15.439-3.492-19.668
		c7.402,2.762,15.137-1.887,17.674-9.02c2.564-7.162-0.529-15.527-7.934-18.139c5.773,0.803,11.311-2.334,13.891-7.508
		C657.103,574.641,656.771,568.371,653.349,563.797C651.235,561.053,654.44,565.256,653.349,563.797z M644.942,541.449
		c1.365-1.514,3.092-3.053,4.959-2.934c1.143,0.078,2.201,0.742,2.291,2.623c0.117,2.125-1.793,2.99-1.793,2.99
		s0.498,0.17,1.01,0.609c0.521,0.438,1.031,1.145,1.045,2.203c0.037,1.885-0.914,2.641-2.045,2.82
		c-1.842,0.289-3.752-1.086-5.203-2.471c-1.432-1.393-2.49-2.814-2.49-2.814S643.599,542.969,644.942,541.449z M630.007,485.969
		c0.631-1.945,1.574-4.082,3.326-4.732c1.08-0.393,2.32-0.197,3.182,1.525c0.992,1.939-0.404,3.504-0.404,3.504
		s0.535-0.041,1.174,0.17c0.635,0.213,1.387,0.674,1.838,1.654c0.803,1.748,0.238,2.826-0.734,3.434
		c-1.574,0.984-3.896,0.453-5.789-0.256c-0.949-0.355-1.795-0.764-2.402-1.082c-0.598-0.322-0.994-0.539-0.994-0.539
		S629.399,487.912,630.007,485.969z M613.245,462.064c0.055-2.047,0.32-4.377,1.834-5.494c0.914-0.666,2.203-0.826,3.551,0.633
		c1.516,1.656,0.6,3.555,0.6,3.555c0,0.002,2.035-0.703,3.439,1.021c1.26,1.521,1,2.723,0.219,3.561
		c-1.271,1.355-3.672,1.41-5.691,1.205c-1.012-0.105-1.938-0.285-2.605-0.436c-0.688-0.139-1.121-0.252-1.121-0.252
		S613.196,464.123,613.245,462.064z M588.935,438.691c0.607-0.979,1.764-1.588,3.639-0.68c1.061,0.502,1.568,1.285,1.801,1.938
		c0.234,0.65,0.184,1.195,0.184,1.195s1.646-1.328,3.693-0.197c1.816,1,1.943,2.318,1.51,3.357
		c-0.748,1.732-2.963,2.484-4.977,3.016c-2.016,0.516-3.77,0.652-3.77,0.652s-0.215-0.404-0.537-1.012
		c-0.318-0.615-0.734-1.475-1.111-2.439C588.644,442.566,587.96,440.285,588.935,438.691z M559.737,431.391
		c1.197-0.044,2.027,0.419,2.543,0.891c0.516,0.47,0.727,0.962,0.727,0.962s0.875-1.931,3.277-1.843
		c1.062,0.029,1.785,0.318,2.244,0.766c0.461,0.432,0.664,0.98,0.703,1.554c0.062,0.936-0.342,1.83-0.947,2.652
		c-0.604,0.807-1.412,1.582-2.203,2.279c-1.584,1.369-3.088,2.283-3.088,2.283s-0.379-0.254-0.947-0.635
		c-0.572-0.4-1.342-0.971-2.131-1.656c-1.562-1.41-3.248-3.066-3.131-4.947C556.866,432.565,557.608,431.442,559.737,431.391z
		 M526.13,442.486c0.199-0.592,0.695-1.166,1.605-1.656c2.051-1.135,3.688,0.201,3.688,0.201s-0.043-0.539,0.193-1.188
		c0.234-0.652,0.746-1.438,1.805-1.938c1.875-0.91,3.045-0.277,3.641,0.693c0.975,1.609,0.273,3.867-0.453,5.826
		c-0.379,0.967-0.797,1.826-1.119,2.441c-0.328,0.602-0.545,1.002-0.545,1.002s-1.75-0.139-3.762-0.656
		c-1.012-0.271-2.068-0.605-2.959-1.07c-0.898-0.475-1.65-1.104-2.012-1.967C525.991,443.645,525.923,443.068,526.13,442.486z
		 M503.249,461.6c0.712-0.854,1.556-1.127,2.257-1.154c0.689-0.033,1.189,0.143,1.189,0.143s-0.909-1.906,0.603-3.557
		c1.367-1.449,2.645-1.299,3.56-0.627c1.506,1.119,1.779,3.461,1.815,5.498c0.047,2.062-0.23,3.799-0.23,3.799
		s-0.431,0.113-1.119,0.248c-0.682,0.139-1.596,0.324-2.61,0.426c-2.019,0.203-4.413,0.145-5.685-1.215
		C502.251,464.32,501.99,463.119,503.249,461.6z M487.475,491.318c-0.968-0.613-1.534-1.689-0.732-3.434
		c0.453-0.984,1.204-1.447,1.841-1.654c0.65-0.205,1.177-0.164,1.177-0.164c0.001,0-1.392-1.574-0.402-3.51
		c0.863-1.723,2.12-1.912,3.191-1.52c1.756,0.654,2.681,2.787,3.312,4.736c0.606,1.947,0.803,3.686,0.803,3.686
		s-0.394,0.219-1.002,0.533c-0.607,0.318-1.452,0.725-2.4,1.08C491.369,491.775,489.052,492.305,487.475,491.318z M480.567,547.074
		c-1.451,1.383-3.362,2.754-5.202,2.465c-1.132-0.184-2.083-0.939-2.047-2.82c0.011-1.061,0.536-1.768,1.054-2.203
		c0.512-0.438,1.01-0.607,1.01-0.607s-1.909-0.873-1.792-2.992c0.089-1.883,1.164-2.549,2.298-2.623
		c1.875-0.117,3.584,1.426,4.951,2.941c1.344,1.521,2.227,3.031,2.227,3.031C483.064,544.266,481.997,545.686,480.567,547.074z
		 M483.816,573.576c-0.331,0.6-0.799,1.406-1.388,2.225c-1.174,1.631-2.802,3.342-4.662,3.398c-1.146,0.029-2.217-0.539-2.525-2.402
		c-0.364-2.105,1.495-3.152,1.495-3.152s-2.035-0.506-2.305-2.617c-0.253-1.873,0.651-2.719,1.766-3.004
		c1.809-0.457,3.803,0.738,5.417,1.98c1.598,1.25,2.739,2.572,2.739,2.572S484.162,572.975,483.816,573.576z M484.06,518.48
		c-1.678,1.088-3.806,2.082-5.56,1.451c-1.078-0.396-1.872-1.322-1.492-3.176c0.503-2.084,2.586-2.381,2.586-2.381
		s-1.719-1.229-1.196-3.303c0.516-1.83,1.648-2.291,2.786-2.143c1.848,0.246,3.278,2.113,4.268,3.855
		c1.013,1.754,1.616,3.412,1.616,3.412S485.777,517.395,484.06,518.48z M489.827,603.707c-0.859,1.857-2.02,3.85-3.85,4.295
		c-1.1,0.26-2.341-0.061-2.983-1.857c-0.747-2.023,0.822-3.418,0.822-3.418s-0.526-0.02-1.147-0.295
		c-0.63-0.271-1.312-0.812-1.646-1.83c-0.589-1.812,0.1-2.818,1.131-3.316c1.678-0.807,3.912-0.029,5.707,0.883
		c0.902,0.457,1.68,0.959,2.263,1.338c0.585,0.375,0.939,0.641,0.939,0.641S490.662,601.852,489.827,603.707z M503.293,629.447
		c-0.377,2.018-1.012,4.266-2.667,5.139c-1.016,0.529-2.289,0.496-3.376-1.123c-1.246-1.822-0.063-3.557-0.063-3.557
		s-0.532,0.107-1.187-0.029c-0.658-0.135-1.468-0.508-2.044-1.436c-1.024-1.652-0.603-2.795,0.302-3.525
		c1.441-1.166,3.804-0.9,5.783-0.43c0.988,0.24,1.879,0.543,2.522,0.783c0.632,0.25,1.053,0.414,1.053,0.414
		S503.643,627.434,503.293,629.447z M522.755,656.486c-0.793,0.828-2.002,1.152-3.658-0.037c-0.934-0.67-1.213-1.572-1.301-2.252
		c-0.08-0.689,0.068-1.197,0.068-1.197s-0.467,0.252-1.159,0.32c-0.679,0.062-1.637-0.02-2.465-0.783
		c-1.503-1.34-1.442-2.584-0.805-3.535c1.041-1.545,3.408-1.955,5.431-2.059c1.006-0.037,1.973-0.031,2.676-0.008
		c0.701,0.025,1.143,0.07,1.143,0.07s0.139,0.422,0.314,1.1c0.182,0.674,0.379,1.631,0.566,2.621
		C523.907,652.727,524.034,655.133,522.755,656.486z M552.556,668.707c-0.359,1.088-1.338,1.898-3.428,1.52
		c-1.178-0.217-1.848-0.936-2.23-1.518c-0.379-0.598-0.465-1.123-0.465-1.123s-0.328,0.422-0.947,0.77
		c-0.617,0.344-1.549,0.637-2.67,0.258c-2.012-0.645-2.484-1.818-2.281-2.945c0.34-1.828,2.406-3.137,4.24-4.045
		c0.922-0.441,1.807-0.799,2.471-1.082c0.658-0.268,1.082-0.41,1.082-0.41s0.305,0.326,0.756,0.869
		c0.453,0.535,1.047,1.336,1.652,2.146C551.923,664.809,553.128,666.936,552.556,668.707z M582.716,668.688
		c-1.121,0.385-2.061,0.061-2.674-0.271c-0.617-0.348-0.941-0.771-0.941-0.771s-0.088,0.525-0.471,1.125
		c-0.387,0.578-1.053,1.312-2.234,1.502c-2.094,0.379-3.072-0.432-3.424-1.523c-0.566-1.771,0.646-3.898,1.838-5.562
		c0.609-0.812,1.211-1.584,1.664-2.131c0.453-0.545,0.76-0.871,0.76-0.871s0.424,0.143,1.08,0.41c0.658,0.275,1.549,0.662,2.465,1.1
		c1.83,0.908,3.891,2.221,4.225,4.053C585.2,666.875,584.726,668.047,582.716,668.688z M611.353,652.695
		c-0.846,0.752-1.795,0.842-2.475,0.777c-0.689-0.072-1.154-0.326-1.154-0.326s0.145,0.51,0.064,1.201
		c-0.092,0.678-0.367,1.586-1.312,2.242c-1.658,1.191-2.865,0.865-3.654,0.035c-1.275-1.355-1.143-3.768-0.797-5.77
		c0.188-0.992,0.402-1.932,0.576-2.613c0.178-0.68,0.316-1.102,0.316-1.102s0.443-0.045,1.143-0.07
		c0.695-0.029,1.676-0.018,2.678,0.02c2.02,0.109,4.383,0.523,5.422,2.068C612.794,650.113,612.854,651.357,611.353,652.695z
		 M631.399,625.115c0.895,0.73,1.314,1.871,0.291,3.521c-0.576,0.93-1.385,1.303-2.043,1.436c-0.67,0.127-1.191,0.021-1.191,0.021
		s1.176,1.742-0.066,3.559c-1.088,1.621-2.379,1.646-3.385,1.119c-1.662-0.881-2.277-3.121-2.652-5.145
		c-0.348-2.016-0.318-3.768-0.318-3.768s0.424-0.164,1.059-0.408c0.643-0.24,1.533-0.541,2.521-0.779
		C627.585,624.201,629.96,623.949,631.399,625.115z M562.884,654.893c-40.672,0-73.762-46.781-73.762-104.285
		c0-57.502,33.09-104.283,73.762-104.283c40.67,0,73.76,46.781,73.76,104.283C636.644,608.111,603.554,654.893,562.884,654.893z
		 M643.546,597.498c1.031,0.504,1.719,1.508,1.129,3.318c-0.324,1.021-1.023,1.559-1.652,1.828
		c-0.621,0.273-1.148,0.291-1.148,0.291s1.568,1.402,0.824,3.422c-0.66,1.793-1.893,2.119-2.994,1.854
		c-1.824-0.445-2.994-2.445-3.836-4.301c-0.834-1.859-1.234-3.564-1.234-3.564s1.432-1.051,3.207-1.973
		C639.636,597.465,641.868,596.691,643.546,597.498z M638.753,516.402c0,0,0.596-1.656,1.623-3.41
		c0.99-1.738,2.422-3.604,4.271-3.848c1.139-0.143,2.27,0.316,2.785,2.145c0.51,2.082-1.205,3.303-1.205,3.303
		s2.092,0.303,2.578,2.383c0.381,1.857-0.414,2.785-1.492,3.176c-1.754,0.629-3.883-0.367-5.561-1.457
		C640.05,517.6,638.753,516.402,638.753,516.402z M651.31,571.25c-0.271,2.115-2.305,2.613-2.305,2.613s1.85,1.053,1.486,3.154
		c-0.309,1.867-1.381,2.436-2.525,2.402c-1.861-0.059-3.488-1.771-4.66-3.406c-0.588-0.82-1.059-1.627-1.385-2.229
		c-0.336-0.602-0.533-1-0.533-1s1.143-1.32,2.74-2.566c1.613-1.24,3.621-2.432,5.424-1.973
		C650.673,568.535,651.56,569.379,651.31,571.25z"/>
	<path fill="#B1E5C6" d="M364.243,284.352c-2.23-2.912-5.345-4.676-8.851-5.043c8.396-0.855,12.729-9.287,11.642-17.051
		c-1.275-7.758-8.069-14.432-16.328-12.672c7.104-3.145,9.208-11.693,6.378-18.521c-3.192-7.701-12.246-12.801-20.049-8.281
		c6.271-5.633,4.904-15.031-0.595-20.65c-5.601-5.513-15-6.892-20.642-0.645c4.076-6.992,0.336-15.444-6.348-19.142
		c-7.073-3.912-16.889-2.533-20.431,5.424c1.758-8.127-4.683-14.906-12.318-16.309c-7.818-1.436-16.514,3.136-17.393,11.543
		c-0.857-8.396-9.288-12.729-17.051-11.641c-7.758,1.276-14.432,8.068-12.673,16.328c-3.143-7.106-11.694-9.208-18.521-6.378
		c-7.701,3.192-12.801,12.246-8.282,20.049c-5.63-6.271-15.03-4.905-20.648,0.596c-5.513,5.598-6.895,15.002-0.646,20.641
		c-6.992-4.078-15.444-0.334-19.142,6.348c-3.914,7.076-2.531,16.881,5.42,20.43c-8.125-1.754-14.902,4.684-16.305,12.318
		c-1.437,7.822,3.139,16.516,11.548,17.395c-8.399,0.854-12.732,9.285-11.646,17.051c1.275,7.758,8.069,14.43,16.328,12.672
		c-7.105,3.143-9.208,11.695-6.378,18.521c3.192,7.701,12.247,12.801,20.049,8.281c-6.271,5.631-4.904,15.031,0.596,20.65
		c5.6,5.512,14.999,6.893,20.641,0.645c-4.077,6.992-0.334,15.443,6.349,19.141c7.073,3.912,16.885,2.533,20.429-5.422
		c-1.754,8.127,4.683,14.904,12.319,16.307c7.831,1.438,16.534-3.148,17.395-11.572c0.812,8.416,9.292,12.756,17.05,11.67
		c7.758-1.275,14.432-8.068,12.673-16.328c3.145,7.105,11.693,9.209,18.521,6.379c7.703-3.193,12.801-12.246,8.282-20.049
		c5.631,6.271,15.029,4.904,20.649-0.596c5.513-5.6,6.893-14.998,0.645-20.641c6.992,4.076,15.445,0.336,19.142-6.348
		c3.912-7.074,2.534-16.885-5.421-20.43c6.039,1.303,11.804-2.033,14.602-7.352C368.061,296.292,367.916,289.309,364.243,284.352
		C362.013,281.44,365.389,285.897,364.243,284.352z M164.373,297.213c-1.151,1.699-4.07,5.334-6.368,3.102
		c-1.485-1.441-1.147-4.17,0.524-5.299c-2.349-0.652-3.656-4.826-0.976-5.902c3.184-1.277,6.746,2.666,8.667,4.697
		C166.221,293.811,165.524,295.463,164.373,297.213C163.19,298.959,165.524,295.463,164.373,297.213z M165.452,265.211
		c-1.771,1.812-5.235,5.154-8.055,3.756c-2.486-1.234-1.092-5.191,1.173-5.816c-2.034-1.389-2.017-5.707,0.904-5.916
		c1.814-0.131,3.236,1.41,4.229,2.73c1.021,1.355,1.884,2.85,2.556,4.406C166.26,264.372,165.937,264.709,165.452,265.211
		C164.96,265.715,165.937,264.709,165.452,265.211z M326.806,203.228c2.429-1.991,5.409,1.543,4.502,4.03
		c2.619-0.942,6.169,2.346,3.847,4.705c-1.243,1.266-3.283,1.352-4.944,1.326c-1.479-0.023-2.972-0.205-4.414-0.533
		c-0.324-1.441-0.503-2.934-0.522-4.411C325.253,206.617,325.362,204.424,326.806,203.228
		C327.707,202.489,325.351,204.434,326.806,203.228z M300.037,186.024c1.715-2.663,5.632-0.19,5.522,2.471
		c2.328-1.815,6.802,0.532,5.001,3.5c-1.553,2.558-5.87,3.148-8.554,3.427C300.647,193.044,298.331,188.712,300.037,186.024
		C300.666,185.047,299.027,187.616,300.037,186.024z M269.231,177.943c0.781-3.022,5.317-1.92,6.017,0.628
		c0.069,0,0.499-0.568,0.571-0.632c0.552-0.478,1.241-0.776,1.971-0.82c1.504-0.094,3.255,0.69,3.373,2.356
		c0.131,1.814-1.408,3.235-2.729,4.23c-1.355,1.021-2.85,1.884-4.408,2.554C272.019,184.329,268.423,181.111,269.231,177.943
		C269.527,176.798,268.768,179.758,269.231,177.943z M239.981,177.129c2.271-0.408,3.401,1.4,3.402,1.4
		c0.647-2.352,4.825-3.654,5.901-0.976c1.279,3.185-2.666,6.747-4.698,8.667c-2.182-0.94-4.523-2.257-6.071-4.096
		C236.865,180.167,237.239,177.594,239.981,177.129C242.253,176.721,237.97,177.47,239.981,177.129z M209.365,188.079
		c1.159-0.643,2.642-0.511,3.685,0.308c-0.095-2.651,3.824-5.136,5.529-2.46c1.707,2.698-0.632,7.014-1.992,9.396
		c-2.339-0.247-4.996-0.743-7.022-1.998C207.356,191.958,206.944,189.466,209.365,188.079
		C210.369,187.522,207.597,189.092,209.365,188.079z M183.69,207.958c1.591-1.667,3.567-0.866,3.568-0.866
		c-0.943-2.619,2.345-6.172,4.705-3.848c1.265,1.244,1.351,3.283,1.326,4.944c-0.022,1.478-0.205,2.972-0.533,4.413
		c-2.163,0.488-4.538,0.746-6.738,0.375C183.394,212.536,181.475,210.245,183.69,207.958
		C185.281,206.292,182.272,209.421,183.69,207.958z M166.023,238.362c-2.667-1.715-0.188-5.629,2.471-5.523
		c-1.815-2.328,0.532-6.801,3.5-5c2.558,1.553,3.15,5.871,3.427,8.555C173.044,237.752,168.711,240.067,166.023,238.362
		C165.047,237.733,167.616,239.372,166.023,238.362z M175.163,322.967c-0.375,2.467-1.122,6.795-3.938,7.684
		c-2.898,0.914-4.412-3.297-2.84-5.303c-2.653,0.1-5.133-3.824-2.46-5.529c2.695-1.703,7.018,0.629,9.396,1.994
		C175.321,321.813,175.278,322.262,175.163,322.967C175.057,323.665,175.278,322.262,175.163,322.967z M191.594,355.17
		c-2.43,1.99-5.411-1.541-4.502-4.029c-2.619,0.941-6.171-2.346-3.848-4.707c1.244-1.264,3.283-1.35,4.944-1.324
		c1.479,0.021,2.972,0.203,4.414,0.531c0.325,1.443,0.503,2.936,0.522,4.412C193.147,351.782,193.037,353.975,191.594,355.17
		C190.691,355.911,193.049,353.965,191.594,355.17z M218.361,372.375c-1.713,2.664-5.631,0.189-5.521-2.471
		c-2.329,1.812-6.803-0.531-5.001-3.5c1.552-2.559,5.87-3.15,8.554-3.428C217.752,365.354,220.068,369.688,218.361,372.375
		C217.733,373.352,219.372,370.784,218.361,372.375z M249.167,380.456c-0.779,3.027-5.314,1.916-6.017-0.627
		c-1.387,2.033-5.707,2.018-5.915-0.904c-0.129-1.816,1.408-3.236,2.729-4.23c1.355-1.02,2.85-1.885,4.407-2.555
		C246.38,374.067,249.977,377.292,249.167,380.456C248.872,381.6,249.632,378.639,249.167,380.456z M278.417,381.27
		c-2.271,0.408-3.401-1.4-3.401-1.4c-0.65,2.348-4.825,3.656-5.901,0.975c-1.278-3.184,2.664-6.746,4.697-8.666
		c2.182,0.941,4.524,2.256,6.072,4.096C281.535,378.233,281.158,380.803,278.417,381.27
		C276.146,381.678,280.429,380.928,278.417,381.27z M309.033,370.321c-1.16,0.643-2.64,0.51-3.685-0.309
		c0.1,2.654-3.824,5.135-5.529,2.461c-1.704-2.695,0.628-7.02,1.993-9.396c2.337,0.242,4.998,0.744,7.022,1.998
		C311.044,366.442,311.454,368.934,309.033,370.321C308.029,370.877,310.803,369.307,309.033,370.321z M334.709,350.442
		c-1.591,1.664-3.568,0.865-3.568,0.865c0.942,2.619-2.346,6.17-4.706,3.848c-1.264-1.244-1.35-3.283-1.325-4.943
		c0.022-1.48,0.203-2.973,0.532-4.416c0.781,0,1.651-0.309,2.434-0.395c1.419-0.156,2.892-0.217,4.305,0.021
		C335.005,345.864,336.924,348.155,334.709,350.442C333.118,352.106,336.126,348.979,334.709,350.442z M259.199,368.385
		c-49.257,0-89.186-39.93-89.186-89.186c0-49.258,39.929-89.186,89.186-89.186s89.186,39.928,89.186,89.186
		C348.385,328.456,308.456,368.385,259.199,368.385z M352.375,320.038c2.665,1.715,0.188,5.627-2.471,5.521
		c1.815,2.328-0.532,6.803-3.5,5.002c-1.351-0.82-2.029-2.461-2.478-3.904c-0.442-1.424-0.949-3.143-0.949-4.65
		C345.355,320.647,349.687,318.331,352.375,320.038C353.352,320.667,350.783,319.028,352.375,320.038z M346.594,238.247
		c-1.199-0.484-2.393-1.018-3.517-1.66c0.277-2.678,0.892-6.998,3.446-8.541c2.971-1.797,5.312,2.682,3.489,5.004
		c2.145-0.08,4.248,2.244,3.423,4.402C352.419,240.108,348.488,238.983,346.594,238.247
		C345.642,237.862,348.518,238.995,346.594,238.247z M354.025,261.186c1.15-1.699,4.07-5.336,6.368-3.104
		c1.485,1.443,1.147,4.17-0.524,5.301c2.351,0.65,3.655,4.824,0.976,5.902c-3.184,1.279-6.747-2.666-8.667-4.699
		C352.178,264.586,352.874,262.936,354.025,261.186C355.208,259.44,352.874,262.936,354.025,261.186z M362.209,292.446
		c-0.169,1.32-1.084,2.445-2.381,2.803c0,0.068,0.568,0.498,0.632,0.57c0.478,0.553,0.775,1.242,0.82,1.971
		c0.094,1.504-0.692,3.256-2.356,3.373c-1.814,0.131-3.235-1.408-4.229-2.729c-1.021-1.354-1.884-2.85-2.555-4.408
		c1.709-1.777,3.576-3.703,5.94-4.578C360.483,288.559,362.543,289.801,362.209,292.446
		C362.063,293.584,362.465,290.422,362.209,292.446z"/>
	<path fill="#FFB8CE" d="M367.048,507.141c0-7.543-6.021-13.715-13.708-14.438c7.688-0.725,13.708-6.893,13.708-14.441
		c0-4.148-1.83-7.875-4.746-10.521c4.972-5.949,4.883-14.607-0.472-19.961c-5.35-5.35-14.005-5.441-19.956-0.473
		c-2.644-2.887-6.353-4.697-10.479-4.697c-7.542,0-13.711,6.018-14.438,13.703c-0.728-7.686-6.895-13.703-14.441-13.703
		c-7.542,0-13.711,6.018-14.438,13.703c-0.728-7.686-6.895-13.703-14.44-13.703c-7.545,0-13.715,6.021-14.438,13.709
		c-0.725-7.688-6.893-13.709-14.44-13.709c-7.543,0-13.714,6.021-14.438,13.709c-0.724-7.688-6.893-13.709-14.44-13.709
		c-7.542,0-13.711,6.018-14.438,13.703c-0.726-7.686-6.894-13.703-14.439-13.703c-4.095,0-7.778,1.783-10.417,4.633
		c-5.948-4.902-14.551-4.789-19.877,0.537c-5.332,5.332-5.442,13.941-0.532,19.889c-2.962,2.648-4.826,6.406-4.826,10.596
		c0,7.543,6.021,13.715,13.707,14.438c-7.687,0.725-13.707,6.893-13.707,14.441c0,7.541,6.018,13.711,13.702,14.438
		c-7.685,0.727-13.702,6.895-13.702,14.441c0,7.541,6.018,13.711,13.702,14.438c-7.685,0.727-13.702,6.895-13.702,14.441
		c0,7.541,6.018,13.711,13.702,14.438c-7.685,0.727-13.702,6.895-13.702,14.441c0,7.543,6.021,13.715,13.707,14.438
		c-7.687,0.725-13.707,6.893-13.707,14.441c0,4.137,1.821,7.857,4.726,10.502c-4.809,5.941-4.663,14.471,0.633,19.766
		c5.21,5.211,13.56,5.441,19.489,0.859c2.647,2.963,6.406,4.824,10.594,4.824c7.543,0,13.714-6.021,14.438-13.707
		c0.724,7.686,6.893,13.707,14.44,13.707c7.542,0,13.711-6.018,14.438-13.703c0.726,7.686,6.894,13.703,14.439,13.703
		c7.544,0,13.715-6.021,14.438-13.707c0.724,7.686,6.894,13.707,14.44,13.707c7.542,0,13.711-6.018,14.438-13.703
		c0.728,7.686,6.895,13.703,14.442,13.703c7.541,0,13.711-6.018,14.438-13.703c0.727,7.686,6.894,13.703,14.44,13.703
		c4.312,0,8.176-1.971,10.835-5.09c5.946,4.846,14.505,4.713,19.811-0.594c5.317-5.316,5.442-13.893,0.573-19.838
		c2.856-2.641,4.645-6.33,4.645-10.432c0-7.543-6.021-13.715-13.708-14.438c7.688-0.725,13.708-6.893,13.708-14.441
		c0-7.541-6.018-13.711-13.703-14.439c7.686-0.725,13.703-6.893,13.703-14.439c0-7.543-6.018-13.711-13.703-14.439
		c7.686-0.725,13.703-6.893,13.703-14.439c0-7.543-6.018-13.711-13.703-14.439C361.03,520.855,367.048,514.688,367.048,507.141z
		 M361.47,475.482c0,2.031-2.089,2.781-2.089,2.781s2.089,0.756,2.089,2.781c0,1.803-1.029,2.518-2.245,2.682
		c-3.947,0.531-8.074-5.463-8.074-5.463s4.127-5.988,8.074-5.459C360.44,472.973,361.47,473.684,361.47,475.482z M352.439,449.451
		c0.978-0.74,2.209-0.965,3.481,0.309c1.437,1.436,0.489,3.441,0.489,3.441s2.012-0.943,3.444,0.49
		c1.274,1.273,1.051,2.508,0.309,3.484c-2.415,3.166-9.573,1.846-9.573,1.846S349.273,451.869,352.439,449.451z M325.938,450.434
		c0.167-1.217,0.879-2.246,2.679-2.246c2.03,0,2.78,2.09,2.78,2.09s0.756-2.09,2.781-2.09c1.803,0,2.517,1.029,2.682,2.246
		c0.09,0.664-0.017,1.332-0.237,1.984l-0.001,0.002c-1.09,3.232-5.225,6.088-5.225,6.088S325.408,454.381,325.938,450.434z
		 M297.058,450.434c0.168-1.217,0.88-2.246,2.68-2.246c2.03,0,2.781,2.09,2.781,2.09s0.755-2.09,2.781-2.09
		c1.802,0,2.516,1.029,2.681,2.246c0.531,3.947-5.462,8.074-5.462,8.074S296.529,454.381,297.058,450.434z M268.18,450.434
		c0.168-1.217,0.879-2.246,2.68-2.246c2.029,0,2.78,2.09,2.78,2.09s0.756-2.09,2.781-2.09c1.801,0,2.517,1.029,2.681,2.246
		c0.531,3.947-5.462,8.074-5.462,8.074S267.65,454.381,268.18,450.434z M239.301,450.434c0.168-1.217,0.88-2.246,2.679-2.246
		c2.031,0,2.781,2.09,2.781,2.09s0.755-2.09,2.781-2.09c1.802,0,2.517,1.029,2.682,2.246c0.531,3.947-5.463,8.074-5.463,8.074
		S238.771,454.381,239.301,450.434z M210.422,450.434c0.167-1.217,0.88-2.246,2.679-2.246c2.031,0,2.781,2.09,2.781,2.09
		s0.755-2.09,2.781-2.09c1.802,0,2.517,1.029,2.682,2.246c0.531,3.947-5.463,8.074-5.463,8.074S209.893,454.381,210.422,450.434z
		 M181.544,450.434c0.166-1.217,0.88-2.246,2.679-2.246c2.029,0,2.781,2.09,2.781,2.09s0.755-2.09,2.78-2.09
		c1.802,0,2.517,1.029,2.682,2.246c0.531,3.947-5.462,8.074-5.462,8.074s-4.048-2.795-5.189-5.984l0.103-0.104l-0.194-0.195
		C181.546,451.633,181.464,451.033,181.544,450.434z M159.173,483.721c-1.215-0.168-2.245-0.879-2.245-2.68
		c0-2.029,2.089-2.779,2.089-2.779s-2.089-0.756-2.089-2.781c0-1.803,1.03-2.518,2.245-2.682c3.947-0.531,8.073,5.463,8.073,5.463
		S163.12,484.25,159.173,483.721z M159.173,512.6c-1.215-0.168-2.245-0.879-2.245-2.678c0-2.031,2.089-2.781,2.089-2.781
		s-2.089-0.756-2.089-2.781c0-1.803,1.03-2.518,2.245-2.682c3.947-0.531,8.073,5.463,8.073,5.463S163.12,513.129,159.173,512.6z
		 M159.173,541.479c-1.215-0.166-2.245-0.879-2.245-2.678c0-2.031,2.089-2.781,2.089-2.781s-2.089-0.756-2.089-2.781
		c0-1.803,1.03-2.518,2.245-2.682c3.947-0.531,8.073,5.463,8.073,5.463S163.12,542.008,159.173,541.479z M159.173,570.357
		c-1.215-0.166-2.245-0.879-2.245-2.68c0-2.029,2.089-2.781,2.089-2.781s-2.089-0.754-2.089-2.779c0-1.803,1.03-2.516,2.245-2.682
		c3.947-0.531,8.073,5.461,8.073,5.461S163.12,570.887,159.173,570.357z M159.173,599.236c-1.215-0.166-2.245-0.879-2.245-2.68
		c0-2.029,2.089-2.781,2.089-2.781s-2.089-0.754-2.089-2.779c0-1.803,1.03-2.518,2.245-2.682c3.947-0.531,8.073,5.461,8.073,5.461
		S163.12,599.766,159.173,599.236z M156.928,625.436c0-2.029,2.089-2.779,2.089-2.779s-2.089-0.756-2.089-2.781
		c0-1.803,1.03-2.518,2.245-2.682c3.947-0.531,8.073,5.463,8.073,5.463s-2.702,3.918-5.824,5.135l-0.074-0.076l-0.149,0.15
		c-0.667,0.229-1.349,0.34-2.025,0.25C157.958,627.947,156.928,627.236,156.928,625.436z M166.1,651.254
		c-0.979,0.74-2.21,0.965-3.482-0.307c-1.437-1.436-0.489-3.443-0.489-3.443s-2.012,0.943-3.444-0.488
		c-1.274-1.275-1.05-2.508-0.309-3.486c2.415-3.166,9.573-1.846,9.573-1.846S169.265,648.836,166.1,651.254z M167.948,459.021
		c0,0-7.158,1.32-9.573-1.846c-0.741-0.977-0.966-2.211,0.309-3.484c1.433-1.434,3.444-0.49,3.444-0.49s-0.947-2.006,0.489-3.441
		c1.272-1.273,2.504-1.049,3.482-0.309C169.265,451.869,167.948,459.021,167.948,459.021z M192.249,650.787
		c-0.168,1.215-0.88,2.244-2.68,2.244c-2.03,0-2.78-2.088-2.78-2.088s-0.756,2.088-2.781,2.088c-1.803,0-2.517-1.029-2.682-2.244
		c-0.1-0.744,0.031-1.494,0.312-2.221l0.279-0.281l-0.106-0.105c1.361-2.967,4.979-5.467,4.979-5.467
		S192.778,646.84,192.249,650.787z M221.128,650.787c-0.168,1.215-0.88,2.244-2.679,2.244c-2.031,0-2.781-2.088-2.781-2.088
		s-0.756,2.088-2.782,2.088c-1.801,0-2.516-1.029-2.681-2.244c-0.531-3.947,5.463-8.074,5.463-8.074S221.657,646.84,221.128,650.787
		z M250.006,650.787c-0.166,1.215-0.88,2.244-2.679,2.244c-2.03,0-2.781-2.088-2.781-2.088s-0.755,2.088-2.78,2.088
		c-1.802,0-2.518-1.029-2.682-2.244c-0.531-3.947,5.462-8.074,5.462-8.074S250.535,646.84,250.006,650.787z M278.885,650.787
		c-0.167,1.215-0.88,2.244-2.679,2.244c-2.031,0-2.781-2.088-2.781-2.088s-0.755,2.088-2.78,2.088c-1.803,0-2.517-1.029-2.683-2.244
		c-0.531-3.947,5.463-8.074,5.463-8.074S279.414,646.84,278.885,650.787z M307.764,650.787c-0.167,1.215-0.879,2.244-2.679,2.244
		c-2.03,0-2.782-2.088-2.782-2.088s-0.754,2.088-2.78,2.088c-1.802,0-2.516-1.029-2.682-2.244c-0.531-3.947,5.462-8.074,5.462-8.074
		S308.292,646.84,307.764,650.787z M336.642,650.787c-0.167,1.215-0.878,2.244-2.679,2.244c-2.029,0-2.781-2.088-2.781-2.088
		s-0.755,2.088-2.78,2.088c-1.802,0-2.517-1.029-2.682-2.244c-0.531-3.947,5.462-8.074,5.462-8.074S337.171,646.84,336.642,650.787z
		 M346.33,637.742H172.066V463.479H346.33V637.742z M359.854,647.016c-1.433,1.432-3.444,0.488-3.444,0.488s0.947,2.008-0.489,3.443
		c-1.272,1.271-2.504,1.047-3.481,0.307c-3.166-2.418-1.85-9.57-1.85-9.57s7.158-1.32,9.573,1.846
		C360.905,644.508,361.129,645.74,359.854,647.016z M359.225,617.199c1.216,0.166,2.245,0.879,2.245,2.678
		c0,2.031-2.089,2.781-2.089,2.781s2.089,0.756,2.089,2.781c0,1.803-1.029,2.516-2.245,2.682c-0.606,0.08-1.215-0.004-1.812-0.186
		l-0.221-0.221l-0.117,0.117c-3.164-1.17-5.924-5.174-5.924-5.174S355.277,616.67,359.225,617.199z M359.225,588.32
		c1.216,0.166,2.245,0.879,2.245,2.678c0,2.031-2.089,2.781-2.089,2.781s2.089,0.756,2.089,2.781c0,1.803-1.029,2.516-2.245,2.682
		c-3.947,0.531-8.074-5.463-8.074-5.463S355.277,587.791,359.225,588.32z M359.225,559.439c1.216,0.168,2.245,0.881,2.245,2.68
		c0,2.031-2.089,2.781-2.089,2.781s2.089,0.756,2.089,2.781c0,1.803-1.029,2.516-2.245,2.682c-3.947,0.531-8.074-5.463-8.074-5.463
		S355.277,558.912,359.225,559.439z M359.225,530.561c1.216,0.168,2.245,0.881,2.245,2.682c0,2.029-2.089,2.779-2.089,2.779
		s2.089,0.756,2.089,2.781c0,1.803-1.029,2.516-2.245,2.682c-3.947,0.531-8.074-5.463-8.074-5.463S355.277,530.033,359.225,530.561z
		 M361.47,509.924c0,1.801-1.029,2.518-2.245,2.682c-3.947,0.531-8.074-5.463-8.074-5.463s4.127-5.988,8.074-5.461
		c1.216,0.168,2.245,0.881,2.245,2.682c0,2.029-2.089,2.779-2.089,2.779S361.47,507.898,361.47,509.924z"/>
	<path fill="#FF99B4" d="M710.335,235.757c0-7.548-6.023-13.721-13.715-14.444c7.691-0.726,13.715-6.896,13.715-14.446
		c0-4.281-1.943-8.118-5.023-10.776c4.768-5.942,4.605-14.438-0.678-19.721c-5.334-5.336-13.955-5.442-19.906-0.518
		c-2.885-2.862-6.918-4.653-11.402-4.653c-8.242,0-14.982,6.022-15.773,13.712c-0.795-7.689-7.533-13.712-15.779-13.712
		c-8.242,0-14.984,6.022-15.775,13.712c-0.793-7.689-7.531-13.712-15.777-13.712c-8.242,0-14.982,6.022-15.775,13.712
		c-0.793-7.689-7.531-13.712-15.779-13.712c-8.24,0-14.98,6.022-15.775,13.712c-0.791-7.689-7.529-13.712-15.775-13.712
		c-8.242,0-14.984,6.022-15.775,13.712c-0.793-7.689-7.531-13.712-15.778-13.712c-8.242,0-14.983,6.022-15.776,13.712
		c-0.791-7.689-7.53-13.712-15.777-13.712c-8.241,0-14.982,6.022-15.775,13.712c-0.792-7.689-7.531-13.712-15.777-13.712
		c-4.446,0-8.451,1.762-11.33,4.583c-5.948-4.853-14.515-4.723-19.824,0.588c-5.259,5.258-5.444,13.702-0.745,19.641
		c-3.13,2.66-5.108,6.532-5.108,10.856c0,7.546,6.023,13.721,13.714,14.444c-7.69,0.724-13.714,6.896-13.714,14.446
		c0,7.546,6.021,13.717,13.71,14.444c-7.689,0.727-13.71,6.896-13.71,14.447c0,7.546,6.021,13.716,13.71,14.444
		c-7.689,0.726-13.71,6.896-13.71,14.446c0,7.546,6.021,13.717,13.71,14.444c-7.689,0.726-13.71,6.896-13.71,14.446
		c0,7.546,6.023,13.721,13.714,14.444c-7.69,0.724-13.714,6.895-13.714,14.446c0,4.273,1.938,8.105,5.009,10.762
		c-4.601,5.933-4.378,14.299,0.845,19.52c5.24,5.241,13.653,5.442,19.591,0.781c2.894,2.957,6.995,4.815,11.564,4.815
		c8.242,0,14.983-6.022,15.776-13.71c0.791,7.688,7.531,13.71,15.777,13.71c8.241,0,14.983-6.022,15.775-13.71
		c0.792,7.688,7.531,13.71,15.777,13.71c8.242,0,14.982-6.022,15.775-13.71c0.793,7.688,7.531,13.71,15.779,13.71
		c8.24,0,14.98-6.022,15.773-13.71c0.793,7.688,7.531,13.71,15.777,13.71c8.242,0,14.984-6.022,15.777-13.71
		c0.791,7.688,7.529,13.71,15.775,13.71c8.242,0,14.984-6.022,15.775-13.71c0.793,7.688,7.531,13.71,15.779,13.71
		c8.24,0,14.982-6.022,15.773-13.71c0.793,7.688,7.533,13.71,15.779,13.71c4.604,0,8.734-1.888,11.631-4.886
		c5.943,4.731,14.41,4.557,19.676-0.711c5.246-5.245,5.445-13.661,0.779-19.598c3.02-2.654,4.922-6.452,4.922-10.686
		c0-7.546-6.023-13.721-13.715-14.444c7.691-0.724,13.715-6.895,13.715-14.446c0-7.544-6.021-13.717-13.709-14.444
		c7.688-0.726,13.709-6.896,13.709-14.446c0-7.544-6.021-13.717-13.709-14.444c7.688-0.727,13.709-6.896,13.709-14.447
		c0-7.544-6.021-13.716-13.709-14.444C704.313,249.476,710.335,243.305,710.335,235.757z M704.753,204.086
		c0,2.031-2.09,2.782-2.09,2.782s2.09,0.755,2.09,2.782c0,1.803-1.029,2.517-2.246,2.681c-3.947,0.533-8.076-5.463-8.076-5.463
		s4.129-5.991,8.076-5.463C703.724,201.574,704.753,202.286,704.753,204.086z M695.239,178.043c0.979-0.742,2.211-0.966,3.484,0.307
		c1.438,1.438,0.488,3.444,0.488,3.444s2.014-0.944,3.447,0.489c1.273,1.274,1.051,2.508,0.309,3.487
		c-2.416,3.166-9.578,1.846-9.578,1.846S692.073,180.461,695.239,178.043z M667.362,179.027c0.182-1.218,0.961-2.248,2.926-2.248
		c2.219,0,3.039,2.092,3.039,2.092s0.824-2.092,3.039-2.092c1.969,0,2.75,1.03,2.93,2.248c0.58,3.947-5.969,8.076-5.969,8.076
		S666.784,182.974,667.362,179.027z M635.81,179.027c0.184-1.218,0.959-2.248,2.926-2.248c2.219,0,3.039,2.092,3.039,2.092
		s0.826-2.092,3.039-2.092c1.969,0,2.748,1.03,2.93,2.248c0.58,3.947-5.969,8.076-5.969,8.076S635.231,182.974,635.81,179.027z
		 M604.255,179.027c0.184-1.218,0.963-2.248,2.928-2.248c2.219,0,3.039,2.092,3.039,2.092s0.826-2.092,3.039-2.092
		c1.969,0,2.748,1.03,2.93,2.248c0.58,3.947-5.969,8.076-5.969,8.076S603.679,182.974,604.255,179.027z M572.702,179.027
		c0.184-1.218,0.963-2.248,2.928-2.248c2.219,0,3.039,2.092,3.039,2.092s0.824-2.092,3.037-2.092c1.969,0,2.75,1.03,2.932,2.248
		c0.58,3.947-5.969,8.076-5.969,8.076S572.126,182.974,572.702,179.027z M541.151,179.027c0.182-1.218,0.959-2.248,2.926-2.248
		c2.219,0,3.039,2.092,3.039,2.092s0.824-2.092,3.039-2.092c1.969,0,2.748,1.03,2.93,2.248c0.58,3.947-5.969,8.076-5.969,8.076
		S540.571,182.974,541.151,179.027z M509.597,179.027c0.183-1.218,0.961-2.248,2.928-2.248c2.218,0,3.038,2.092,3.038,2.092
		s0.825-2.092,3.038-2.092c1.971,0,2.75,1.03,2.93,2.248c0.582,3.947-5.968,8.076-5.968,8.076S509.019,182.974,509.597,179.027z
		 M478.044,179.027c0.183-1.218,0.961-2.248,2.927-2.248c2.219,0,3.039,2.092,3.039,2.092s0.824-2.092,3.038-2.092
		c1.969,0,2.75,1.03,2.93,2.248c0.581,3.947-5.968,8.076-5.968,8.076S477.466,182.974,478.044,179.027z M446.491,179.027
		c0.182-1.218,0.96-2.248,2.927-2.248c2.219,0,3.038,2.092,3.038,2.092s0.826-2.092,3.039-2.092c1.969,0,2.749,1.03,2.93,2.248
		c0.58,3.947-5.969,8.076-5.969,8.076S445.912,182.974,446.491,179.027z M423.273,212.328c-1.216-0.169-2.246-0.88-2.246-2.681
		c0-2.032,2.09-2.782,2.09-2.782s-2.09-0.755-2.09-2.782c0-1.803,1.03-2.517,2.246-2.681c3.948-0.533,8.077,5.463,8.077,5.463
		S427.222,212.856,423.273,212.328z M423.273,241.218c-1.216-0.168-2.246-0.88-2.246-2.681c0-2.031,2.09-2.782,2.09-2.782
		s-2.09-0.755-2.09-2.782c0-1.803,1.03-2.517,2.246-2.683c3.948-0.53,8.077,5.465,8.077,5.465S427.222,241.747,423.273,241.218z
		 M423.273,270.11c-1.216-0.169-2.246-0.881-2.246-2.682c0-2.031,2.09-2.782,2.09-2.782s-2.09-0.754-2.09-2.781
		c0-1.804,1.03-2.517,2.246-2.684c3.948-0.53,8.077,5.465,8.077,5.465S427.222,270.638,423.273,270.11z M423.273,299
		c-1.216-0.169-2.246-0.88-2.246-2.682c0-2.031,2.09-2.781,2.09-2.781s-2.09-0.755-2.09-2.782c0-1.804,1.03-2.517,2.246-2.684
		c3.948-0.53,8.077,5.466,8.077,5.466S427.222,299.529,423.273,299z M423.273,327.891c-1.216-0.168-2.246-0.88-2.246-2.681
		c0-2.032,2.09-2.782,2.09-2.782s-2.09-0.757-2.09-2.782c0-1.803,1.03-2.519,2.246-2.683c3.948-0.531,8.077,5.465,8.077,5.465
		S427.222,328.419,423.273,327.891z M421.027,354.101c0-2.031,2.09-2.782,2.09-2.782s-2.09-0.757-2.09-2.781
		c0-1.804,1.03-2.52,2.246-2.684c3.948-0.531,8.077,5.465,8.077,5.465s-4.129,5.992-8.077,5.461
		C422.058,356.614,421.027,355.902,421.027,354.101z M430.694,379.93c-0.979,0.74-2.211,0.965-3.483-0.309
		c-1.438-1.435-0.489-3.443-0.489-3.443s-2.013,0.943-3.446-0.49c-1.274-1.274-1.051-2.508-0.309-3.484
		c2.416-3.169,9.577-1.849,9.577-1.849S433.86,377.512,430.694,379.93z M432.544,187.617c0,0-7.161,1.32-9.577-1.846
		c-0.742-0.979-0.966-2.213,0.309-3.487c1.434-1.434,3.446-0.489,3.446-0.489s-0.948-2.007,0.489-3.444
		c1.272-1.272,2.504-1.049,3.483-0.307C433.86,180.461,432.544,187.617,432.544,187.617z M458.419,379.374
		c-0.183,1.215-0.961,2.245-2.927,2.245c-2.219,0-3.039-2.089-3.039-2.089s-0.824,2.089-3.038,2.089c-1.969,0-2.75-1.03-2.93-2.245
		c-0.581-3.95,5.968-8.079,5.968-8.079S458.997,375.423,458.419,379.374z M489.972,379.374c-0.184,1.215-0.96,2.245-2.927,2.245
		c-2.219,0-3.039-2.089-3.039-2.089s-0.825,2.089-3.038,2.089c-1.969,0-2.749-1.03-2.93-2.245c-0.58-3.95,5.968-8.079,5.968-8.079
		S490.55,375.423,489.972,379.374z M521.526,379.374c-0.184,1.215-0.963,2.245-2.928,2.245c-2.22,0-3.039-2.089-3.039-2.089
		s-0.826,2.089-3.039,2.089c-1.969,0-2.749-1.03-2.93-2.245c-0.58-3.95,5.969-8.079,5.969-8.079S522.103,375.423,521.526,379.374z
		 M553.079,379.374c-0.184,1.215-0.963,2.245-2.928,2.245c-2.219,0-3.039-2.089-3.039-2.089s-0.824,2.089-3.037,2.089
		c-1.969,0-2.75-1.03-2.932-2.245c-0.58-3.95,5.969-8.079,5.969-8.079S553.655,375.423,553.079,379.374z M584.63,379.374
		c-0.182,1.215-0.959,2.245-2.926,2.245c-2.219,0-3.039-2.089-3.039-2.089s-0.824,2.089-3.039,2.089c-1.969,0-2.748-1.03-2.93-2.245
		c-0.58-3.95,5.969-8.079,5.969-8.079S585.21,375.423,584.63,379.374z M616.185,379.374c-0.184,1.215-0.961,2.245-2.928,2.245
		c-2.219,0-3.039-2.089-3.039-2.089s-0.824,2.089-3.037,2.089c-1.971,0-2.75-1.03-2.93-2.245c-0.582-3.95,5.967-8.079,5.967-8.079
		S616.763,375.423,616.185,379.374z M647.737,379.374c-0.184,1.215-0.961,2.245-2.928,2.245c-2.219,0-3.039-2.089-3.039-2.089
		s-0.824,2.089-3.037,2.089c-1.969,0-2.75-1.03-2.93-2.245c-0.582-3.95,5.967-8.079,5.967-8.079S648.315,375.423,647.737,379.374z
		 M679.29,379.374c-0.182,1.215-0.961,2.245-2.928,2.245c-2.219,0-3.037-2.089-3.037-2.089s-0.826,2.089-3.039,2.089
		c-1.969,0-2.75-1.03-2.93-2.245c-0.58-3.95,5.969-8.079,5.969-8.079S679.868,375.423,679.29,379.374z M689.218,365.977H436.562
		V192.42h252.655V365.977z M702.659,375.688c-1.434,1.434-3.447,0.49-3.447,0.49s0.949,2.009-0.488,3.443
		c-1.273,1.273-2.506,1.049-3.484,0.309c-3.166-2.418-1.85-9.575-1.85-9.575s7.162-1.32,9.578,1.849
		C703.71,373.18,703.933,374.414,702.659,375.688z M702.507,345.86c1.217,0.167,2.246,0.88,2.246,2.68
		c0,2.031-2.09,2.781-2.09,2.781s2.09,0.757,2.09,2.782c0,1.804-1.029,2.519-2.246,2.684c-3.947,0.532-8.076-5.466-8.076-5.466
		S698.56,345.33,702.507,345.86z M702.507,316.969c1.217,0.166,2.246,0.88,2.246,2.679c0,2.032-2.09,2.782-2.09,2.782
		s2.09,0.757,2.09,2.782c0,1.803-1.029,2.519-2.246,2.683c-3.947,0.533-8.076-5.465-8.076-5.465S698.56,316.439,702.507,316.969z
		 M702.507,288.079c1.217,0.166,2.246,0.88,2.246,2.679c0,2.031-2.09,2.782-2.09,2.782s2.09,0.757,2.09,2.784
		c0,1.801-1.029,2.517-2.246,2.681c-3.947,0.533-8.076-5.465-8.076-5.465S698.56,287.547,702.507,288.079z M702.507,259.187
		c1.217,0.167,2.246,0.88,2.246,2.682c0,2.029-2.09,2.782-2.09,2.782s2.09,0.754,2.09,2.781c0,1.802-1.029,2.518-2.246,2.682
		c-3.947,0.532-8.076-5.463-8.076-5.463S698.56,258.659,702.507,259.187z M704.753,238.542c0,1.801-1.029,2.517-2.246,2.682
		c-3.947,0.532-8.076-5.464-8.076-5.464s4.129-5.991,8.076-5.463c1.217,0.167,2.246,0.88,2.246,2.682c0,2.029-2.09,2.781-2.09,2.781
		S704.753,236.514,704.753,238.542z"/>
</g>
<g id="Watermark" opacity="0.8">
</g>
<g id="Label_Template">
</g>
</svg>
