<?xml version="1.0" encoding="UTF-8"?>
<svg width="100%" height="100%" version="1.1" viewBox="0 0 393 393" xmlns="http://www.w3.org/2000/svg">
    <path d="m5 1.5c-2 0.1-3.4 1.6-3.4 3.5v30.8c0 2 1.5 3.5 3.4 3.5h26.6v26.7h-26.6c-2 0.1-3.4 1.7-3.4 3.6v201.9h7v-198.4h23v53.2c0.15 3 3.7 4.5 5.9 2.5l33.9-33.2c0.7-0.6 1-1.5 1.1992-2.5v-20h19.701c0.9 0 1.8-0.4 2.4-1l34.5-33.8c2.2-2.1 0.80117-5.9-2.2988-6h-54.291v-23.697h198.98v-7.0996h-202.48c-1.97 0-3.5801 1.5-3.6 3.5v27.3h-26.799v-27.297c0-1.9-1.56-3.5-3.5-3.5zm3.6 7h23v23.7h-22.996zm30.098 30.7h26.8v26.7h-26.8zm33.9 0h45.7l-27.4 26.7h-18.3zm-33.9 33.8h26.8v18.6l-26.8 26.2z" fill="#d45500"/>
    <path d="m388.19 1.5c2 0.1 3.4 1.6 3.4 3.5v30.8c0 2-1.5 3.5-3.4 3.5h-26.6v26.7h26.6c2 0.1 3.4 1.7 3.4 3.6v201.9h-7v-198.4h-23v53.2c-0.15 3-3.7 4.5-5.9 2.5l-33.9-33.2c-0.7-0.6-1-1.5-1.1992-2.5v-20h-19.701c-0.9 0-1.8-0.4-2.4-1l-34.5-33.8c-2.2-2.1-0.80117-5.9 2.2988-6h54.291v-23.697h-58.98v-7.0996h62.48c1.97 0 3.5801 1.5 3.6 3.5v27.3h26.799v-27.297c0-1.9 1.56-3.5 3.5-3.5zm-3.6 7h-23v23.7h22.996zm-30.098 30.7h-26.8v26.7h26.8zm-33.9 0h-45.7l27.4 26.7h18.3zm33.9 33.8h-26.8v18.6l26.8 26.2z" fill="#d45500"/>
    <path d="m5 391.5c-2-0.1-3.4-1.6-3.4-3.5v-30.8c0-2 1.5-3.5 3.4-3.5h26.6v-26.7h-26.6c-2-0.1-3.4-1.7-3.4-3.6v-61.9h7v58.4h23v-53.2c0.15-3 3.7-4.5 5.9-2.5l33.9 33.2c0.7 0.6 1 1.5 1.1992 2.5v20h19.701c0.9 0 1.8 0.4 2.4 1l34.5 33.8c2.2 2.1 0.80117 5.9-2.2988 6h-54.291v23.697h58.98v7.0996h-62.48c-1.97 0-3.5801-1.5-3.6-3.5v-27.3h-26.799v27.297c0 1.9-1.56 3.5-3.5 3.5zm3.6-7h23v-23.7h-22.996zm30.098-30.7h26.8v-26.7h-26.8zm33.9 0h45.7l-27.4-26.7h-18.3zm-33.9-33.8h26.8v-18.6l-26.8-26.2z" fill="#d45500"/>
    <path d="m388.19 391.5c2-0.1 3.4-1.6 3.4-3.5v-30.8c0-2-1.5-3.5-3.4-3.5h-26.6v-26.7h26.6c2-0.1 3.4-1.7 3.4-3.6v-61.9h-7v58.4h-23v-53.2c-0.15-3-3.7-4.5-5.9-2.5l-33.9 33.2c-0.7 0.6-1 1.5-1.1992 2.5v20h-19.701c-0.9 0-1.8 0.4-2.4 1l-34.5 33.8c-2.2 2.1-0.80117 5.9 2.2988 6h54.291v23.697h-198.98v7.0996h202.48c1.97 0 3.5801-1.5 3.6-3.5v-27.3h26.799v27.297c0 1.9 1.56 3.5 3.5 3.5zm-3.6-7h-23v-23.7h22.996zm-30.098-30.7h-26.8v-26.7h26.8zm-33.9 0h-45.7l27.4-26.7h18.3zm33.9-33.8h-26.8v-18.6l26.8-26.2z" fill="#d45500"/>
</svg>
