<?xml version="1.0" encoding="UTF-8"?>
<svg height="100%" width="100%" viewBox="0 0 1750 380" xmlns="http://www.w3.org/2000/svg">
<path fill="none" d="M 210.2 3.395 L 23.83 189.7 L 210.2 376 L 396.5 189.7 L 210 3.395 z M 658 3.4 L 471.6 189.7 L 658 376 L 844.2 189.7 L 657.9 3.395 z M 1106 3.395 L 919.5 189.7 L 1106 376 L 1292 189.7 L 1106 3.4 z M 1554 3.5 L 1367 190 L 1554 376.2 L 1740 190 L 1554 3.535 z" stroke="#fff" stroke-width="8"></path><g id="bla"><path fill="#ddd" d="m227 42a63 63 0 0 0 -63 63 63 63 0 0 0 7 29c-20-1-27-11.5-27-11.5s6.3 18.6 40 28.4a63.55 63.55 0 0 0 44 17.7 63 63 0 0 0 63.6 -63.5 63.55 63.55 0 0 0 -63.6 -63.6z"></path><g stroke-width="10" stroke-linecap="round" stroke="#fff"><path d="m190 90h70"></path><path d="m190 110h50"></path><path d="m190 130h60"></path></g></g><path d="m68 174.2a121.7 121.7 0 0 0 121.6 120.2 121.7 121.7 0 0 0 121.7 -120.2h-243z" fill="hsla(0,0%,80%,0.5)"></path><path fill="#fff" d="m105.6 123.4l8.1-8.3c1-1.2 3.2-1.2 3.7 0l10.8 12.4c1.1 1.2 1.1 2.8 0 3.8l-6.4 6.6c-1.1 1.1-2.7 1-3.8 0l-12.4-10.7c-1.6-1-1.1-2.6 0-3.8z"></path><path fill="#ddd" d="m125 119.7c-2.2-.2-5.4 3.1-8.6 6.2l-1.6 1.3c-3.3 3.2-6 6.4-3.8 8.2 3.2 3.5 23.1 19.5 24.8 34.1 0 1.6 0 3.2.5 4.7h66.2l-10.7-11.1c-10.8-10.5-17.3-16.5-31.8-18-14.5-1.7-30.7-21.3-33.9-24.6-.6-.5-1.1-.7-1.7-.8z"></path><path fill="#fff" d="m174 155a2.5 2.5 0 0 0 -1.6 4l15 15h7l-19-18a2.5 2.5 0 0 0 -1 -1z"></path><path fill="#ccc" d="m144.4 174c2 11 8 17.4 17 26.7 17 17 34.5 34 51 51 4.3 4.4 9.7 6.9 15.6 2.9l.5.2 3.3-3 18.3-18.7 3-3-.5-.2c4.3-6.2 1.6-11.3-2.7-15.8l-37.7-38-2.2-2.1h-66z"></path><path fill="#ffffff" d="m193.4 174.2l15.6 15.6a2.385 2.385 0 1 0 3 -3.3l-12.4-12.3h-6.4z"></path><path fill="#7a1e23" d="m970 191l25.3-15.4 26 19z"></path><path fill="#dee3ee" d="m1114 216.7l-13 44.6-68-24.4-37.8-61.4 116.8 22.7z"></path><path fill="#dee3ee" d="m1082 141.5l121-4.3-89 79.5z"></path><path fill="#f2f4f8" d="m1114 216.7l72-96-109 20.7z"></path><path fill="#eceff5" d="m1077 141.5l-56 77 93-1.3z"></path><path fill="#d1d8e6" d="m1114 217.1l19 97-41-40z"></path><path fill="#ccc" d="m511.7 161.8l138.2 19v46.7z"></path><path fill="#ccc" d="m787 161.8l-138.4 19v46.7z"></path><path fill="#fff" d="m649.5 154.5l-53.9 54h53.9z"></path><path fill="#efefef" d="m649.5 154.5l53.7 54h-53.7z"></path><path fill="#ddd" d="m510.5 161.5l65.4 86.7 73.6-55.7z"></path><path fill="#eee" d="m790 161.8l-66 86.4-73.3-55.7z"></path><path fill="#eee" d="m575.2 248.2l75.1-55.7v55.7z"></path><path fill="#ddd" d="m725.5 248.2l-75.2-55.7v55.7z"></path><text font-size="156px" y="235" x="1495" fill="#eee">@</text>
</svg>