<?xml version="1.0" encoding="UTF-8"?><svg width="100%" height="100%" version="1.1" viewBox="0 0 308 308" xmlns:xlink="http://www.w3.org/1999/xlink" xmlns="http://www.w3.org/2000/svg"><title>Pinterest Icon</title><rect height="300" width="300" stroke="#fff" x="4" stroke-width="8" fill="#c92228"/><path fill="#fff" d="m150 70c-45 0-69 32.7-69 60.2 0 16.4 6 31.2 20 36.7 3 .8 4 0 4-2.5 2-1.6 3-5.7 3-7.7 1-2.5 1-3.1-1-5.4-5-4.5-7-10.5-7-18.7 0-24.3 18-45.9 49-45.9 24 0 38 15.9 38 36.9 0 27.6-11 51.1-29 51.1-11 0-19-8.3-16-18.5 3-12.2 8-25.3 8-34.1 0-7.8-4-14.4-12-14.4-12 0-20 10.7-20 24.7 0 9.2 4 15.3 4 15.3s-11 44.6-13 52.4c-4 15.5 0 34.6 0 36.4 0 1.2 2 1.4 3 .6 1-1.3 13-16.5 17-31.2 1-4.3 7-26.5 7-26.5 3 6.2 13 11.9 24 11.9 30 0 51-28.1 51-65.9 0-28.6-24-55.3-61-55.3z"/></svg>